  0
SECTION
  2
HEADER
  9
$ANGBASE
  50
0.0
  9
$ANGDIR
  70
1
  9
$MEASUREMENT
  70
1
  0
ENDSEC
  0
SECTION
  2
TABLES
  0
TABLE
  2
LTYPE
  70
4
  0
LTYPE
  5
40F
  2
CONTINUOUS
  70
0
  3
Solid line
  72
65
  73
0
  40
0.0
  0
LTYPE
  5
410
  2
DASHDOT
 70
0
  3
Dash Dot ____ _ ____ _
 72
65
 73
4
 40
2.0
 49
1.25
 49
-0.25
 49
0.25
 49
-0.25
  0
LTYPE
  5
411
  2
DASHED
 70
0
  3
Dashed __ __ __ __ __
 72
65
 73
2
 40
0.75
 49
0.5
 49
-0.25
  0
LTYPE
  5
43B
  2
DOTTED
 70
0
  3
Dotted .  .  .  .
 72
65
 73
2
 40
0.2
 49
0.0
 49
-0.2
  0
ENDTAB
  0
TABLE
  2
STYLE
  70
4
  0
STYLE
  2
KICAD
  70
0
  40
0
  41
1
  42
1
  50
0
  71
0
  3
isocp.shx
  0
STYLE
  2
KICADB
  70
0
  40
0
  41
1
  42
1
  50
0
  71
0
  3
isocp.shx
  0
STYLE
  2
KICADI
  70
0
  40
0
  41
1
  42
1
  50
15
  71
0
  3
isocp.shx
  0
STYLE
  2
KICADBI
  70
0
  40
0
  41
1
  42
1
  50
15
  71
0
  3
isocp.shx
  0
ENDTAB
  0
TABLE
  2
LAYER
  70
1
  0
LAYER
  2
BLACK
  70
0
  62
7
  6
CONTINUOUS
  0
ENDTAB
  0
ENDSEC
  0
SECTION
  2
ENTITIES
0
ARC
8
BLACK
10
62.1063
20
-86.8957
40
1.5
50
-90
51
-0
0
LINE
8
BLACK
6
CONTINUOUS
10
45.0549
20
-106.904
11
62.111
21
-106.904
0
LINE
8
BLACK
6
CONTINUOUS
10
63.6063
20
-74.9431
11
63.6063
21
-86.8957
0
LINE
8
BLACK
6
CONTINUOUS
10
62.1063
20
-88.3957
11
45.0596
21
-88.4042
0
LINE
8
BLACK
6
CONTINUOUS
10
44.5596
20
-88.9042
11
44.5549
21
-106.404
0
ARC
8
BLACK
10
45.0549
20
-106.404
40
0.5
50
-180
51
-90
0
ARC
8
BLACK
10
62.111
20
-108.404
40
1.5
50
-0
51
90
0
ARC
8
BLACK
10
45.0596
20
-88.9042
40
0.5
50
90
51
180
0
LINE
8
BLACK
6
CONTINUOUS
10
63.6092
20
-130.1
11
63.611
21
-108.404
0
ARC
8
BLACK
10
177.387
20
-123.135
40
0.850368
50
-178.315
51
-125.788
0
ARC
8
BLACK
10
195.04
20
-135.9
40
1.38677
50
-33.9765
51
56.2469
0
LINE
8
BLACK
6
CONTINUOUS
10
195.811
20
-134.747
11
176.89
21
-123.825
0
ARC
8
BLACK
10
182.684
20
-157.361
40
1.38677
50
-123.977
51
-33.7531
0
ARC
8
BLACK
10
166.627
20
-153.518
40
3.41439
50
73.1872
51
84.4006
0
LINE
8
BLACK
6
CONTINUOUS
10
183.837
20
-158.131
11
196.19
21
-136.675
0
LINE
8
BLACK
6
CONTINUOUS
10
167.615
20
-150.25
11
181.909
21
-158.511
0
LINE
8
BLACK
6
CONTINUOUS
10
130.29
20
-145.35
11
166.961
21
-150.12
0
ARC
8
BLACK
10
130.29
20
-144.85
40
0.5
50
-135
51
-90
0
LINE
8
BLACK
6
CONTINUOUS
10
119.394
20
-130.746
11
129.936
21
-145.204
0
LINE
8
BLACK
6
CONTINUOUS
10
176.54
20
-72.6
11
176.537
21
-123.16
0
ARC
8
BLACK
10
176.04
20
-72.6
40
0.5
50
-0
51
90
0
ARC
8
BLACK
10
119.04
20
-131.1
40
0.5
50
45
51
90
0
ARC
8
BLACK
10
64.1092
20
-130.1
40
0.5
50
-180
51
-90
0
ARC
8
BLACK
10
64.04
20
-74.8051
40
0.455139
50
-270
51
-162.352
0
ARC
8
BLACK
10
101.04
20
-73.85
40
0.5
50
-90
51
-0
0
ARC
8
BLACK
10
102.04
20
-70.1
40
0.5
50
90
51
180
0
ARC
8
BLACK
10
120.04
20
-69.1
40
0.5
50
-90
51
-0
0
ARC
8
BLACK
10
121.04
20
-67.85
40
0.5
50
90
51
180
0
ARC
8
BLACK
10
138.04
20
-67.85
40
0.5
50
-0
51
90
0
ARC
8
BLACK
10
139.04
20
-69.1
40
0.5
50
-180
51
-90
0
ARC
8
BLACK
10
157.04
20
-70.1
40
0.5
50
-0
51
90
0
ARC
8
BLACK
10
158.04
20
-71.6
40
0.5
50
-180
51
-90
0
LINE
8
BLACK
6
CONTINUOUS
10
119.04
20
-130.6
11
64.1092
21
-130.6
0
LINE
8
BLACK
6
CONTINUOUS
10
101.04
20
-74.35
11
64.04
21
-74.35
0
LINE
8
BLACK
6
CONTINUOUS
10
101.54
20
-70.1
11
101.54
21
-73.85
0
LINE
8
BLACK
6
CONTINUOUS
10
120.04
20
-69.6
11
102.04
21
-69.6
0
LINE
8
BLACK
6
CONTINUOUS
10
120.54
20
-67.85
11
120.54
21
-69.1
0
LINE
8
BLACK
6
CONTINUOUS
10
138.04
20
-67.35
11
121.04
21
-67.35
0
LINE
8
BLACK
6
CONTINUOUS
10
138.54
20
-69.1
11
138.54
21
-67.85
0
LINE
8
BLACK
6
CONTINUOUS
10
157.04
20
-69.6
11
139.04
21
-69.6
0
LINE
8
BLACK
6
CONTINUOUS
10
157.54
20
-71.6
11
157.54
21
-70.1
0
LINE
8
BLACK
6
CONTINUOUS
10
176.04
20
-72.1
11
158.04
21
-72.1
0
POLYLINE
8
BLACK
66
1
70
1
40
1.2
41
1.2
0
VERTEX
8
BLACK
10
171.19
 20
-136.85
42
1.0
0
VERTEX
8
BLACK
10
172.39
 20
-136.85
42
1.0
0
SEQEND
0
POLYLINE
8
BLACK
66
1
70
1
40
1.2
41
1.2
0
VERTEX
8
BLACK
10
81.44
 20
-111.85
42
1.0
0
VERTEX
8
BLACK
10
82.64
 20
-111.85
42
1.0
0
SEQEND
0
POLYLINE
8
BLACK
66
1
70
1
40
1.2
41
1.2
0
VERTEX
8
BLACK
10
157.44
 20
-89.35
42
1.0
0
VERTEX
8
BLACK
10
158.64
 20
-89.35
42
1.0
0
SEQEND
0
POLYLINE
8
BLACK
66
1
70
1
40
1.2
41
1.2
0
VERTEX
8
BLACK
10
81.44
 20
-93.1
42
1.0
0
VERTEX
8
BLACK
10
82.64
 20
-93.1
42
1.0
0
SEQEND
0
POLYLINE
8
BLACK
66
1
70
1
40
1.2
41
1.2
0
VERTEX
8
BLACK
10
124.69
 20
-129.1
42
1.0
0
VERTEX
8
BLACK
10
125.89
 20
-129.1
42
1.0
0
SEQEND
0
LINE
8
BLACK
6
CONTINUOUS
10
45.8063
20
-91.133
11
45.8063
21
-103.933
0
LINE
8
BLACK
6
CONTINUOUS
10
45.8063
20
-103.933
11
61.3063
21
-103.933
0
LINE
8
BLACK
6
CONTINUOUS
10
61.3063
20
-103.933
11
61.3063
21
-91.133
0
LINE
8
BLACK
6
CONTINUOUS
10
61.3063
20
-91.133
11
45.8063
21
-91.133
0
LINE
8
BLACK
6
CONTINUOUS
10
172.872
20
-146.347
11
183.958
21
-152.747
0
LINE
8
BLACK
6
CONTINUOUS
10
183.958
20
-152.747
11
191.708
21
-139.323
0
LINE
8
BLACK
6
CONTINUOUS
10
191.708
20
-139.323
11
180.622
21
-132.923
0
LINE
8
BLACK
6
CONTINUOUS
10
180.622
20
-132.923
11
172.872
21
-146.347
0
LINE
8
BLACK
6
CONTINUOUS
10
154.203
20
-130.906
11
150.89
21
-143.27
0
LINE
8
BLACK
6
CONTINUOUS
10
150.89
20
-143.27
11
165.861
21
-147.282
0
LINE
8
BLACK
6
CONTINUOUS
10
165.861
20
-147.282
11
169.174
21
-134.918
0
LINE
8
BLACK
6
CONTINUOUS
10
169.174
20
-134.918
11
154.203
21
-130.906
0
LINE
8
BLACK
6
CONTINUOUS
10
131.32
20
-129.985
11
131.32
21
-142.785
0
LINE
8
BLACK
6
CONTINUOUS
10
131.32
20
-142.785
11
146.82
21
-142.785
0
LINE
8
BLACK
6
CONTINUOUS
10
146.82
20
-142.785
11
146.82
21
-129.985
0
LINE
8
BLACK
6
CONTINUOUS
10
146.82
20
-129.985
11
131.32
21
-129.985
0
LINE
8
BLACK
6
CONTINUOUS
10
159.8
20
-112.7
11
159.8
21
-125.5
0
LINE
8
BLACK
6
CONTINUOUS
10
159.8
20
-125.5
11
175.3
21
-125.5
0
LINE
8
BLACK
6
CONTINUOUS
10
175.3
20
-125.5
11
175.3
21
-112.7
0
LINE
8
BLACK
6
CONTINUOUS
10
175.3
20
-112.7
11
159.8
21
-112.7
0
LINE
8
BLACK
6
CONTINUOUS
10
159.8
20
-74.7
11
159.8
21
-87.5
0
LINE
8
BLACK
6
CONTINUOUS
10
159.8
20
-87.5
11
175.3
21
-87.5
0
LINE
8
BLACK
6
CONTINUOUS
10
175.3
20
-87.5
11
175.3
21
-74.7
0
LINE
8
BLACK
6
CONTINUOUS
10
175.3
20
-74.7
11
159.8
21
-74.7
0
LINE
8
BLACK
6
CONTINUOUS
10
159.8
20
-93.7
11
159.8
21
-106.5
0
LINE
8
BLACK
6
CONTINUOUS
10
159.8
20
-106.5
11
175.3
21
-106.5
0
LINE
8
BLACK
6
CONTINUOUS
10
175.3
20
-106.5
11
175.3
21
-93.7
0
LINE
8
BLACK
6
CONTINUOUS
10
175.3
20
-93.7
11
159.8
21
-93.7
0
LINE
8
BLACK
6
CONTINUOUS
10
140.8
20
-91.325
11
140.8
21
-104.125
0
LINE
8
BLACK
6
CONTINUOUS
10
140.8
20
-104.125
11
156.3
21
-104.125
0
LINE
8
BLACK
6
CONTINUOUS
10
156.3
20
-104.125
11
156.3
21
-91.325
0
LINE
8
BLACK
6
CONTINUOUS
10
156.3
20
-91.325
11
140.8
21
-91.325
0
LINE
8
BLACK
6
CONTINUOUS
10
140.8
20
-72.325
11
140.8
21
-85.125
0
LINE
8
BLACK
6
CONTINUOUS
10
140.8
20
-85.125
11
156.3
21
-85.125
0
LINE
8
BLACK
6
CONTINUOUS
10
156.3
20
-85.125
11
156.3
21
-72.325
0
LINE
8
BLACK
6
CONTINUOUS
10
156.3
20
-72.325
11
140.8
21
-72.325
0
LINE
8
BLACK
6
CONTINUOUS
10
140.8
20
-110.325
11
140.8
21
-123.125
0
LINE
8
BLACK
6
CONTINUOUS
10
140.8
20
-123.125
11
156.3
21
-123.125
0
LINE
8
BLACK
6
CONTINUOUS
10
156.3
20
-123.125
11
156.3
21
-110.325
0
LINE
8
BLACK
6
CONTINUOUS
10
156.3
20
-110.325
11
140.8
21
-110.325
0
LINE
8
BLACK
6
CONTINUOUS
10
121.8
20
-88.95
11
121.8
21
-101.75
0
LINE
8
BLACK
6
CONTINUOUS
10
121.8
20
-101.75
11
137.3
21
-101.75
0
LINE
8
BLACK
6
CONTINUOUS
10
137.3
20
-101.75
11
137.3
21
-88.95
0
LINE
8
BLACK
6
CONTINUOUS
10
137.3
20
-88.95
11
121.8
21
-88.95
0
LINE
8
BLACK
6
CONTINUOUS
10
121.8
20
-107.95
11
121.8
21
-120.75
0
LINE
8
BLACK
6
CONTINUOUS
10
121.8
20
-120.75
11
137.3
21
-120.75
0
LINE
8
BLACK
6
CONTINUOUS
10
137.3
20
-120.75
11
137.3
21
-107.95
0
LINE
8
BLACK
6
CONTINUOUS
10
137.3
20
-107.95
11
121.8
21
-107.95
0
LINE
8
BLACK
6
CONTINUOUS
10
121.8
20
-69.95
11
121.8
21
-82.75
0
LINE
8
BLACK
6
CONTINUOUS
10
121.8
20
-82.75
11
137.3
21
-82.75
0
LINE
8
BLACK
6
CONTINUOUS
10
137.3
20
-82.75
11
137.3
21
-69.95
0
LINE
8
BLACK
6
CONTINUOUS
10
137.3
20
-69.95
11
121.8
21
-69.95
0
LINE
8
BLACK
6
CONTINUOUS
10
102.8
20
-91.325
11
102.8
21
-104.125
0
LINE
8
BLACK
6
CONTINUOUS
10
102.8
20
-104.125
11
118.3
21
-104.125
0
LINE
8
BLACK
6
CONTINUOUS
10
118.3
20
-104.125
11
118.3
21
-91.325
0
LINE
8
BLACK
6
CONTINUOUS
10
118.3
20
-91.325
11
102.8
21
-91.325
0
LINE
8
BLACK
6
CONTINUOUS
10
102.8
20
-110.325
11
102.8
21
-123.125
0
LINE
8
BLACK
6
CONTINUOUS
10
102.8
20
-123.125
11
118.3
21
-123.125
0
LINE
8
BLACK
6
CONTINUOUS
10
118.3
20
-123.125
11
118.3
21
-110.325
0
LINE
8
BLACK
6
CONTINUOUS
10
118.3
20
-110.325
11
102.8
21
-110.325
0
LINE
8
BLACK
6
CONTINUOUS
10
102.8
20
-72.325
11
102.8
21
-85.125
0
LINE
8
BLACK
6
CONTINUOUS
10
102.8
20
-85.125
11
118.3
21
-85.125
0
LINE
8
BLACK
6
CONTINUOUS
10
118.3
20
-85.125
11
118.3
21
-72.325
0
LINE
8
BLACK
6
CONTINUOUS
10
118.3
20
-72.325
11
102.8
21
-72.325
0
LINE
8
BLACK
6
CONTINUOUS
10
83.8
20
-96.075
11
83.8
21
-108.875
0
LINE
8
BLACK
6
CONTINUOUS
10
83.8
20
-108.875
11
99.3
21
-108.875
0
LINE
8
BLACK
6
CONTINUOUS
10
99.3
20
-108.875
11
99.3
21
-96.075
0
LINE
8
BLACK
6
CONTINUOUS
10
99.3
20
-96.075
11
83.8
21
-96.075
0
LINE
8
BLACK
6
CONTINUOUS
10
83.8
20
-115.075
11
83.8
21
-127.875
0
LINE
8
BLACK
6
CONTINUOUS
10
83.8
20
-127.875
11
99.3
21
-127.875
0
LINE
8
BLACK
6
CONTINUOUS
10
99.3
20
-127.875
11
99.3
21
-115.075
0
LINE
8
BLACK
6
CONTINUOUS
10
99.3
20
-115.075
11
83.8
21
-115.075
0
LINE
8
BLACK
6
CONTINUOUS
10
64.8
20
-115.075
11
64.8
21
-127.875
0
LINE
8
BLACK
6
CONTINUOUS
10
64.8
20
-127.875
11
80.3
21
-127.875
0
LINE
8
BLACK
6
CONTINUOUS
10
80.3
20
-127.875
11
80.3
21
-115.075
0
LINE
8
BLACK
6
CONTINUOUS
10
80.3
20
-115.075
11
64.8
21
-115.075
0
LINE
8
BLACK
6
CONTINUOUS
10
64.8
20
-96.075
11
64.8
21
-108.875
0
LINE
8
BLACK
6
CONTINUOUS
10
64.8
20
-108.875
11
80.3
21
-108.875
0
LINE
8
BLACK
6
CONTINUOUS
10
80.3
20
-108.875
11
80.3
21
-96.075
0
LINE
8
BLACK
6
CONTINUOUS
10
80.3
20
-96.075
11
64.8
21
-96.075
0
LINE
8
BLACK
6
CONTINUOUS
10
64.8
20
-77.075
11
64.8
21
-89.875
0
LINE
8
BLACK
6
CONTINUOUS
10
64.8
20
-89.875
11
80.3
21
-89.875
0
LINE
8
BLACK
6
CONTINUOUS
10
80.3
20
-89.875
11
80.3
21
-77.075
0
LINE
8
BLACK
6
CONTINUOUS
10
80.3
20
-77.075
11
64.8
21
-77.075
0
LINE
8
BLACK
6
CONTINUOUS
10
83.8
20
-77.075
11
83.8
21
-89.875
0
LINE
8
BLACK
6
CONTINUOUS
10
83.8
20
-89.875
11
99.3
21
-89.875
0
LINE
8
BLACK
6
CONTINUOUS
10
99.3
20
-89.875
11
99.3
21
-77.075
0
LINE
8
BLACK
6
CONTINUOUS
10
99.3
20
-77.075
11
83.8
21
-77.075
  0
ENDSEC
  0
EOF
