  0
SECTION
  2
HEADER
  9
$ANGBASE
  50
0.0
  9
$ANGDIR
  70
1
  9
$MEASUREMENT
  70
1
  0
ENDSEC
  0
SECTION
  2
TABLES
  0
TABLE
  2
LTYPE
  70
4
  0
LTYPE
  5
40F
  2
CONTINUOUS
  70
0
  3
Solid line
  72
65
  73
0
  40
0.0
  0
LTYPE
  5
410
  2
DASHDOT
 70
0
  3
Dash Dot ____ _ ____ _
 72
65
 73
4
 40
2.0
 49
1.25
 49
-0.25
 49
0.25
 49
-0.25
  0
LTYPE
  5
411
  2
DASHED
 70
0
  3
Dashed __ __ __ __ __
 72
65
 73
2
 40
0.75
 49
0.5
 49
-0.25
  0
LTYPE
  5
43B
  2
DOTTED
 70
0
  3
Dotted .  .  .  .
 72
65
 73
2
 40
0.2
 49
0.0
 49
-0.2
  0
ENDTAB
  0
TABLE
  2
STYLE
  70
4
  0
STYLE
  2
KICAD
  70
0
  40
0
  41
1
  42
1
  50
0
  71
0
  3
isocp.shx
  0
STYLE
  2
KICADB
  70
0
  40
0
  41
1
  42
1
  50
0
  71
0
  3
isocp.shx
  0
STYLE
  2
KICADI
  70
0
  40
0
  41
1
  42
1
  50
15
  71
0
  3
isocp.shx
  0
STYLE
  2
KICADBI
  70
0
  40
0
  41
1
  42
1
  50
15
  71
0
  3
isocp.shx
  0
ENDTAB
  0
TABLE
  2
LAYER
  70
1
  0
LAYER
  2
BLACK
  70
0
  62
7
  6
CONTINUOUS
  0
ENDTAB
  0
ENDSEC
  0
SECTION
  2
ENTITIES
0
ARC
8
BLACK
10
62.0963
20
-108.39
40
1.48541
50
-0.565479
51
89.4345
0
LINE
8
BLACK
6
CONTINUOUS
10
63.6063
20
-74.9431
11
63.61
21
-86.925
0
ARC
8
BLACK
10
62.1247
20
-86.9103
40
1.48541
50
-90.5655
51
-0.565479
0
LINE
8
BLACK
6
CONTINUOUS
10
45.0549
20
-106.904
11
62.111
21
-106.904
0
LINE
8
BLACK
6
CONTINUOUS
10
62.1063
20
-88.3957
11
45.0596
21
-88.4042
0
LINE
8
BLACK
6
CONTINUOUS
10
44.5596
20
-88.9042
11
44.5549
21
-106.404
0
ARC
8
BLACK
10
45.0549
20
-106.404
40
0.5
50
-180
51
-90
0
ARC
8
BLACK
10
45.0596
20
-88.9042
40
0.5
50
90
51
180
0
LINE
8
BLACK
6
CONTINUOUS
10
63.6092
20
-130.1
11
63.5817
21
-108.404
0
ARC
8
BLACK
10
177.387
20
-123.135
40
0.850368
50
-178.315
51
-125.788
0
ARC
8
BLACK
10
195.04
20
-135.9
40
1.38677
50
-33.9765
51
56.2469
0
LINE
8
BLACK
6
CONTINUOUS
10
195.811
20
-134.747
11
176.89
21
-123.825
0
ARC
8
BLACK
10
182.684
20
-157.361
40
1.38677
50
-123.977
51
-33.7531
0
ARC
8
BLACK
10
166.627
20
-153.518
40
3.41439
50
73.1872
51
84.4006
0
LINE
8
BLACK
6
CONTINUOUS
10
183.837
20
-158.131
11
196.19
21
-136.675
0
LINE
8
BLACK
6
CONTINUOUS
10
167.615
20
-150.25
11
181.909
21
-158.511
0
LINE
8
BLACK
6
CONTINUOUS
10
130.29
20
-145.35
11
166.961
21
-150.12
0
ARC
8
BLACK
10
130.29
20
-144.85
40
0.5
50
-135
51
-90
0
LINE
8
BLACK
6
CONTINUOUS
10
119.394
20
-130.746
11
129.936
21
-145.204
0
LINE
8
BLACK
6
CONTINUOUS
10
176.54
20
-72.6
11
176.537
21
-123.16
0
ARC
8
BLACK
10
176.04
20
-72.6
40
0.5
50
-0
51
90
0
ARC
8
BLACK
10
119.04
20
-131.1
40
0.5
50
45
51
90
0
ARC
8
BLACK
10
64.1092
20
-130.1
40
0.5
50
-180
51
-90
0
ARC
8
BLACK
10
64.04
20
-74.8051
40
0.455139
50
-270
51
-162.352
0
ARC
8
BLACK
10
101.04
20
-73.85
40
0.5
50
-90
51
-0
0
ARC
8
BLACK
10
102.04
20
-70.1
40
0.5
50
90
51
180
0
ARC
8
BLACK
10
120.04
20
-69.1
40
0.5
50
-90
51
-0
0
ARC
8
BLACK
10
121.04
20
-67.85
40
0.5
50
90
51
180
0
ARC
8
BLACK
10
138.04
20
-67.85
40
0.5
50
-0
51
90
0
ARC
8
BLACK
10
139.04
20
-69.1
40
0.5
50
-180
51
-90
0
ARC
8
BLACK
10
157.04
20
-70.1
40
0.5
50
-0
51
90
0
ARC
8
BLACK
10
158.04
20
-71.6
40
0.5
50
-180
51
-90
0
LINE
8
BLACK
6
CONTINUOUS
10
119.04
20
-130.6
11
64.1092
21
-130.6
0
LINE
8
BLACK
6
CONTINUOUS
10
101.04
20
-74.35
11
64.04
21
-74.35
0
LINE
8
BLACK
6
CONTINUOUS
10
101.54
20
-70.1
11
101.54
21
-73.85
0
LINE
8
BLACK
6
CONTINUOUS
10
120.04
20
-69.6
11
102.04
21
-69.6
0
LINE
8
BLACK
6
CONTINUOUS
10
120.54
20
-67.85
11
120.54
21
-69.1
0
LINE
8
BLACK
6
CONTINUOUS
10
138.04
20
-67.35
11
121.04
21
-67.35
0
LINE
8
BLACK
6
CONTINUOUS
10
138.54
20
-69.1
11
138.54
21
-67.85
0
LINE
8
BLACK
6
CONTINUOUS
10
157.04
20
-69.6
11
139.04
21
-69.6
0
LINE
8
BLACK
6
CONTINUOUS
10
157.54
20
-71.6
11
157.54
21
-70.1
0
LINE
8
BLACK
6
CONTINUOUS
10
176.04
20
-72.1
11
158.04
21
-72.1
0
POLYLINE
8
BLACK
66
1
70
1
40
1.2
41
1.2
0
VERTEX
8
BLACK
10
81.44
 20
-111.85
42
1.0
0
VERTEX
8
BLACK
10
82.64
 20
-111.85
42
1.0
0
SEQEND
0
POLYLINE
8
BLACK
66
1
70
1
40
1.2
41
1.2
0
VERTEX
8
BLACK
10
171.19
 20
-136.85
42
1.0
0
VERTEX
8
BLACK
10
172.39
 20
-136.85
42
1.0
0
SEQEND
0
POLYLINE
8
BLACK
66
1
70
1
40
1.2
41
1.2
0
VERTEX
8
BLACK
10
157.44
 20
-89.35
42
1.0
0
VERTEX
8
BLACK
10
158.64
 20
-89.35
42
1.0
0
SEQEND
0
POLYLINE
8
BLACK
66
1
70
1
40
1.2
41
1.2
0
VERTEX
8
BLACK
10
81.44
 20
-93.1
42
1.0
0
VERTEX
8
BLACK
10
82.64
 20
-93.1
42
1.0
0
SEQEND
0
POLYLINE
8
BLACK
66
1
70
1
40
1.2
41
1.2
0
VERTEX
8
BLACK
10
124.69
 20
-129.1
42
1.0
0
VERTEX
8
BLACK
10
125.89
 20
-129.1
42
1.0
0
SEQEND
0
ARC
8
BLACK
10
190.177
20
-144.792
40
0.5
50
-30
51
30
0
ARC
8
BLACK
10
187.927
20
-149.689
40
0.5
50
90
51
150
0
ARC
8
BLACK
10
187.927
20
-148.689
40
0.5
50
-90
51
-30
0
ARC
8
BLACK
10
191.043
20
-144.292
40
0.499999
50
150
51
210
0
ARC
8
BLACK
10
172.302
20
-145.511
40
0.5
50
150
51
240
0
ARC
8
BLACK
10
173.533
20
-141.379
40
0.5
50
-30
51
30
0
ARC
8
BLACK
10
192.274
20
-140.16
40
0.499999
50
-30
51
60
0
ARC
8
BLACK
10
179.612
20
-132.85
40
0.499999
50
60
51
150
0
ARC
8
BLACK
10
174.399
20
-140.879
40
0.499999
50
150
51
210
0
ARC
8
BLACK
10
184.964
20
-152.821
40
0.499999
50
-120
51
-30
0
ARC
8
BLACK
10
176.649
20
-136.982
40
0.5
50
89.9999
51
150
0
ARC
8
BLACK
10
176.649
20
-135.982
40
0.5
50
-89.9999
51
-29.9999
0
LINE
8
BLACK
6
CONTINUOUS
10
177.082
20
-136.232
11
179.179
21
-132.6
0
LINE
8
BLACK
6
CONTINUOUS
10
173.966
20
-140.629
11
176.216
21
-136.732
0
LINE
8
BLACK
6
CONTINUOUS
10
179.862
20
-132.417
11
192.524
21
-139.727
0
LINE
8
BLACK
6
CONTINUOUS
10
171.869
20
-145.261
11
173.966
21
-141.629
0
LINE
8
BLACK
6
CONTINUOUS
10
184.714
20
-153.254
11
172.052
21
-145.944
0
LINE
8
BLACK
6
CONTINUOUS
10
192.707
20
-140.41
11
190.61
21
-144.042
0
LINE
8
BLACK
6
CONTINUOUS
10
190.61
20
-145.042
11
188.36
21
-148.939
0
LINE
8
BLACK
6
CONTINUOUS
10
187.494
20
-149.439
11
185.397
21
-153.071
0
ARC
8
BLACK
10
160.183
20
-147.218
40
0.5
50
-105
51
-44.9999
0
ARC
8
BLACK
10
154.87
20
-146.313
40
0.499999
50
15.0001
51
75.0001
0
ARC
8
BLACK
10
155.836
20
-146.054
40
0.5
50
-165
51
-105
0
ARC
8
BLACK
10
160.89
20
-147.926
40
0.5
50
75.0001
51
135
0
ARC
8
BLACK
10
154.862
20
-130.139
40
0.5
50
74.9999
51
165
0
ARC
8
BLACK
10
159.172
20
-130.259
40
0.5
50
-105
51
-44.9999
0
ARC
8
BLACK
10
165.2
20
-148.045
40
0.5
50
-105
51
-14.9999
0
ARC
8
BLACK
10
168.984
20
-133.923
40
0.5
50
-15.0001
51
74.9999
0
ARC
8
BLACK
10
159.879
20
-130.966
40
0.5
50
75.0001
51
135
0
ARC
8
BLACK
10
151.078
20
-144.261
40
0.5
50
165
51
255
0
ARC
8
BLACK
10
164.226
20
-132.131
40
0.5
50
15.0001
51
75.0001
0
ARC
8
BLACK
10
165.192
20
-131.872
40
0.499999
50
-165
51
-105
0
LINE
8
BLACK
6
CONTINUOUS
10
165.062
20
-132.355
11
169.113
21
-133.44
0
LINE
8
BLACK
6
CONTINUOUS
10
160.008
20
-130.483
11
164.355
21
-131.648
0
LINE
8
BLACK
6
CONTINUOUS
10
169.467
20
-134.053
11
165.683
21
-148.175
0
LINE
8
BLACK
6
CONTINUOUS
10
154.991
20
-129.656
11
159.043
21
-130.742
0
LINE
8
BLACK
6
CONTINUOUS
10
150.595
20
-144.132
11
154.379
21
-130.01
0
LINE
8
BLACK
6
CONTINUOUS
10
165.071
20
-148.528
11
161.019
21
-147.443
0
LINE
8
BLACK
6
CONTINUOUS
10
160.054
20
-147.701
11
155.707
21
-146.537
0
LINE
8
BLACK
6
CONTINUOUS
10
155
20
-145.83
11
150.949
21
-144.744
0
ARC
8
BLACK
10
141.319
20
-144.194
40
0.5
50
-90
51
-30
0
ARC
8
BLACK
10
135.953
20
-144.694
40
0.499999
50
30
51
90
0
ARC
8
BLACK
10
136.819
20
-144.194
40
0.5
50
-150
51
-90
0
ARC
8
BLACK
10
142.185
20
-144.694
40
0.5
50
90
51
150
0
ARC
8
BLACK
10
131.759
20
-129.074
40
0.5
50
90
51
180
0
ARC
8
BLACK
10
135.953
20
-128.074
40
0.5
50
-90
51
-30
0
ARC
8
BLACK
10
146.379
20
-143.694
40
0.5
50
-90
51
-0
0
ARC
8
BLACK
10
146.379
20
-129.074
40
0.5
50
-0
51
90
0
ARC
8
BLACK
10
136.819
20
-128.574
40
0.5
50
90
51
150
0
ARC
8
BLACK
10
131.759
20
-143.694
40
0.5
50
180
51
270
0
ARC
8
BLACK
10
141.319
20
-128.574
40
0.5
50
30
51
90
0
ARC
8
BLACK
10
142.185
20
-128.074
40
0.499999
50
-150
51
-90
0
LINE
8
BLACK
6
CONTINUOUS
10
142.185
20
-128.574
11
146.379
21
-128.574
0
LINE
8
BLACK
6
CONTINUOUS
10
136.819
20
-128.074
11
141.319
21
-128.074
0
LINE
8
BLACK
6
CONTINUOUS
10
146.879
20
-129.074
11
146.879
21
-143.694
0
LINE
8
BLACK
6
CONTINUOUS
10
131.759
20
-128.574
11
135.953
21
-128.574
0
LINE
8
BLACK
6
CONTINUOUS
10
131.259
20
-143.694
11
131.259
21
-129.074
0
LINE
8
BLACK
6
CONTINUOUS
10
146.379
20
-144.194
11
142.185
21
-144.194
0
LINE
8
BLACK
6
CONTINUOUS
10
141.319
20
-144.694
11
136.819
21
-144.694
0
LINE
8
BLACK
6
CONTINUOUS
10
135.953
20
-144.194
11
131.759
21
-144.194
0
ARC
8
BLACK
10
65.2386
20
-76.1635
40
0.5
50
90
51
180
0
ARC
8
BLACK
10
69.4326
20
-75.1635
40
0.5
50
-90
51
-30
0
ARC
8
BLACK
10
79.8586
20
-90.7835
40
0.5
50
-90
51
-0
0
ARC
8
BLACK
10
79.8586
20
-76.1635
40
0.5
50
-0
51
90
0
ARC
8
BLACK
10
70.2986
20
-75.6635
40
0.5
50
90
51
150
0
ARC
8
BLACK
10
65.2386
20
-90.7835
40
0.5
50
180
51
270
0
ARC
8
BLACK
10
74.7986
20
-75.6635
40
0.5
50
30
51
90
0
ARC
8
BLACK
10
75.6646
20
-75.1635
40
0.499999
50
-150
51
-90
0
LINE
8
BLACK
6
CONTINUOUS
10
75.6646
20
-75.6635
11
79.8586
21
-75.6635
0
LINE
8
BLACK
6
CONTINUOUS
10
70.2986
20
-75.1635
11
74.7986
21
-75.1635
0
LINE
8
BLACK
6
CONTINUOUS
10
79.8586
20
-91.2835
11
65.2386
21
-91.2835
0
LINE
8
BLACK
6
CONTINUOUS
10
80.3586
20
-76.1635
11
80.3586
21
-90.7835
0
LINE
8
BLACK
6
CONTINUOUS
10
65.2386
20
-75.6635
11
69.4326
21
-75.6635
0
LINE
8
BLACK
6
CONTINUOUS
10
64.7386
20
-90.7835
11
64.7386
21
-76.1635
0
ARC
8
BLACK
10
65.2386
20
-95.1635
40
0.5
50
90
51
180
0
ARC
8
BLACK
10
69.4326
20
-94.1635
40
0.5
50
-90
51
-30
0
ARC
8
BLACK
10
79.8586
20
-109.784
40
0.5
50
-90
51
-0
0
ARC
8
BLACK
10
79.8586
20
-95.1635
40
0.5
50
-0
51
90
0
ARC
8
BLACK
10
70.2986
20
-94.6635
40
0.5
50
90
51
150
0
ARC
8
BLACK
10
65.2386
20
-109.784
40
0.5
50
180
51
270
0
ARC
8
BLACK
10
74.7986
20
-94.6635
40
0.5
50
30
51
90
0
ARC
8
BLACK
10
75.6646
20
-94.1635
40
0.499999
50
-150
51
-90
0
LINE
8
BLACK
6
CONTINUOUS
10
75.6646
20
-94.6635
11
79.8586
21
-94.6635
0
LINE
8
BLACK
6
CONTINUOUS
10
70.2986
20
-94.1635
11
74.7986
21
-94.1635
0
LINE
8
BLACK
6
CONTINUOUS
10
79.8586
20
-110.284
11
65.2386
21
-110.284
0
LINE
8
BLACK
6
CONTINUOUS
10
80.3586
20
-95.1635
11
80.3586
21
-109.784
0
LINE
8
BLACK
6
CONTINUOUS
10
65.2386
20
-94.6635
11
69.4326
21
-94.6635
0
LINE
8
BLACK
6
CONTINUOUS
10
64.7386
20
-109.784
11
64.7386
21
-95.1635
0
ARC
8
BLACK
10
65.2386
20
-114.164
40
0.5
50
90
51
180
0
ARC
8
BLACK
10
69.4326
20
-113.164
40
0.5
50
-90
51
-30
0
ARC
8
BLACK
10
79.8586
20
-128.784
40
0.5
50
-90
51
-0
0
ARC
8
BLACK
10
79.8586
20
-114.164
40
0.5
50
-0
51
90
0
ARC
8
BLACK
10
70.2986
20
-113.664
40
0.5
50
90
51
150
0
ARC
8
BLACK
10
65.2386
20
-128.784
40
0.5
50
180
51
270
0
ARC
8
BLACK
10
74.7986
20
-113.664
40
0.5
50
30
51
90
0
ARC
8
BLACK
10
75.6646
20
-113.164
40
0.499999
50
-150
51
-90
0
LINE
8
BLACK
6
CONTINUOUS
10
75.6646
20
-113.664
11
79.8586
21
-113.664
0
LINE
8
BLACK
6
CONTINUOUS
10
70.2986
20
-113.164
11
74.7986
21
-113.164
0
LINE
8
BLACK
6
CONTINUOUS
10
79.8586
20
-129.284
11
65.2386
21
-129.284
0
LINE
8
BLACK
6
CONTINUOUS
10
80.3586
20
-114.164
11
80.3586
21
-128.784
0
LINE
8
BLACK
6
CONTINUOUS
10
65.2386
20
-113.664
11
69.4326
21
-113.664
0
LINE
8
BLACK
6
CONTINUOUS
10
64.7386
20
-128.784
11
64.7386
21
-114.164
0
ARC
8
BLACK
10
84.2386
20
-76.1635
40
0.5
50
90
51
180
0
ARC
8
BLACK
10
88.4326
20
-75.1635
40
0.5
50
-90
51
-30
0
ARC
8
BLACK
10
98.8586
20
-90.7835
40
0.5
50
-90
51
-0
0
ARC
8
BLACK
10
98.8586
20
-76.1635
40
0.5
50
-0
51
90
0
ARC
8
BLACK
10
89.2986
20
-75.6635
40
0.5
50
90
51
150
0
ARC
8
BLACK
10
84.2386
20
-90.7835
40
0.5
50
180
51
270
0
ARC
8
BLACK
10
93.7986
20
-75.6635
40
0.5
50
30
51
90
0
ARC
8
BLACK
10
94.6646
20
-75.1635
40
0.499999
50
-150
51
-90
0
LINE
8
BLACK
6
CONTINUOUS
10
94.6646
20
-75.6635
11
98.8586
21
-75.6635
0
LINE
8
BLACK
6
CONTINUOUS
10
89.2986
20
-75.1635
11
93.7986
21
-75.1635
0
LINE
8
BLACK
6
CONTINUOUS
10
98.8586
20
-91.2835
11
84.2386
21
-91.2835
0
LINE
8
BLACK
6
CONTINUOUS
10
99.3586
20
-76.1635
11
99.3586
21
-90.7835
0
LINE
8
BLACK
6
CONTINUOUS
10
84.2386
20
-75.6635
11
88.4326
21
-75.6635
0
LINE
8
BLACK
6
CONTINUOUS
10
83.7386
20
-90.7835
11
83.7386
21
-76.1635
0
ARC
8
BLACK
10
84.2386
20
-114.164
40
0.5
50
90
51
180
0
ARC
8
BLACK
10
88.4326
20
-113.164
40
0.5
50
-90
51
-30
0
ARC
8
BLACK
10
98.8586
20
-128.784
40
0.5
50
-90
51
-0
0
ARC
8
BLACK
10
98.8586
20
-114.164
40
0.5
50
-0
51
90
0
ARC
8
BLACK
10
89.2986
20
-113.664
40
0.5
50
90
51
150
0
ARC
8
BLACK
10
84.2386
20
-128.784
40
0.5
50
180
51
270
0
ARC
8
BLACK
10
93.7986
20
-113.664
40
0.5
50
30
51
90
0
ARC
8
BLACK
10
94.6646
20
-113.164
40
0.499999
50
-150
51
-90
0
LINE
8
BLACK
6
CONTINUOUS
10
94.6646
20
-113.664
11
98.8586
21
-113.664
0
LINE
8
BLACK
6
CONTINUOUS
10
89.2986
20
-113.164
11
93.7986
21
-113.164
0
LINE
8
BLACK
6
CONTINUOUS
10
98.8586
20
-129.284
11
84.2386
21
-129.284
0
LINE
8
BLACK
6
CONTINUOUS
10
99.3586
20
-114.164
11
99.3586
21
-128.784
0
LINE
8
BLACK
6
CONTINUOUS
10
84.2386
20
-113.664
11
88.4326
21
-113.664
0
LINE
8
BLACK
6
CONTINUOUS
10
83.7386
20
-128.784
11
83.7386
21
-114.164
0
ARC
8
BLACK
10
84.2386
20
-95.1635
40
0.5
50
90
51
180
0
ARC
8
BLACK
10
88.4326
20
-94.1635
40
0.5
50
-90
51
-30
0
ARC
8
BLACK
10
98.8586
20
-109.784
40
0.5
50
-90
51
-0
0
ARC
8
BLACK
10
98.8586
20
-95.1635
40
0.5
50
-0
51
90
0
ARC
8
BLACK
10
89.2986
20
-94.6635
40
0.5
50
90
51
150
0
ARC
8
BLACK
10
84.2386
20
-109.784
40
0.5
50
180
51
270
0
ARC
8
BLACK
10
93.7986
20
-94.6635
40
0.5
50
30
51
90
0
ARC
8
BLACK
10
94.6646
20
-94.1635
40
0.499999
50
-150
51
-90
0
LINE
8
BLACK
6
CONTINUOUS
10
94.6646
20
-94.6635
11
98.8586
21
-94.6635
0
LINE
8
BLACK
6
CONTINUOUS
10
89.2986
20
-94.1635
11
93.7986
21
-94.1635
0
LINE
8
BLACK
6
CONTINUOUS
10
98.8586
20
-110.284
11
84.2386
21
-110.284
0
LINE
8
BLACK
6
CONTINUOUS
10
99.3586
20
-95.1635
11
99.3586
21
-109.784
0
LINE
8
BLACK
6
CONTINUOUS
10
84.2386
20
-94.6635
11
88.4326
21
-94.6635
0
LINE
8
BLACK
6
CONTINUOUS
10
83.7386
20
-109.784
11
83.7386
21
-95.1635
0
ARC
8
BLACK
10
103.239
20
-71.4135
40
0.5
50
90
51
180
0
ARC
8
BLACK
10
107.433
20
-70.4135
40
0.5
50
-90
51
-30
0
ARC
8
BLACK
10
117.859
20
-86.0335
40
0.5
50
-90
51
-0
0
ARC
8
BLACK
10
117.859
20
-71.4135
40
0.5
50
-0
51
90
0
ARC
8
BLACK
10
108.299
20
-70.9135
40
0.5
50
90
51
150
0
ARC
8
BLACK
10
103.239
20
-86.0335
40
0.5
50
180
51
270
0
ARC
8
BLACK
10
112.799
20
-70.9135
40
0.5
50
30
51
90
0
ARC
8
BLACK
10
113.665
20
-70.4135
40
0.499999
50
-150
51
-90
0
LINE
8
BLACK
6
CONTINUOUS
10
113.665
20
-70.9135
11
117.859
21
-70.9135
0
LINE
8
BLACK
6
CONTINUOUS
10
108.299
20
-70.4135
11
112.799
21
-70.4135
0
LINE
8
BLACK
6
CONTINUOUS
10
117.859
20
-86.5335
11
103.239
21
-86.5335
0
LINE
8
BLACK
6
CONTINUOUS
10
118.359
20
-71.4135
11
118.359
21
-86.0335
0
LINE
8
BLACK
6
CONTINUOUS
10
103.239
20
-70.9135
11
107.433
21
-70.9135
0
LINE
8
BLACK
6
CONTINUOUS
10
102.739
20
-86.0335
11
102.739
21
-71.4135
0
ARC
8
BLACK
10
103.239
20
-109.414
40
0.5
50
90
51
180
0
ARC
8
BLACK
10
107.433
20
-108.414
40
0.5
50
-90
51
-30
0
ARC
8
BLACK
10
117.859
20
-124.034
40
0.5
50
-90
51
-0
0
ARC
8
BLACK
10
117.859
20
-109.414
40
0.5
50
-0
51
90
0
ARC
8
BLACK
10
108.299
20
-108.914
40
0.5
50
90
51
150
0
ARC
8
BLACK
10
103.239
20
-124.034
40
0.5
50
180
51
270
0
ARC
8
BLACK
10
112.799
20
-108.914
40
0.5
50
30
51
90
0
ARC
8
BLACK
10
113.665
20
-108.414
40
0.499999
50
-150
51
-90
0
LINE
8
BLACK
6
CONTINUOUS
10
113.665
20
-108.914
11
117.859
21
-108.914
0
LINE
8
BLACK
6
CONTINUOUS
10
108.299
20
-108.414
11
112.799
21
-108.414
0
LINE
8
BLACK
6
CONTINUOUS
10
117.859
20
-124.534
11
103.239
21
-124.534
0
LINE
8
BLACK
6
CONTINUOUS
10
118.359
20
-109.414
11
118.359
21
-124.034
0
LINE
8
BLACK
6
CONTINUOUS
10
103.239
20
-108.914
11
107.433
21
-108.914
0
LINE
8
BLACK
6
CONTINUOUS
10
102.739
20
-124.034
11
102.739
21
-109.414
0
ARC
8
BLACK
10
103.239
20
-90.4135
40
0.5
50
90
51
180
0
ARC
8
BLACK
10
107.433
20
-89.4135
40
0.5
50
-90
51
-30
0
ARC
8
BLACK
10
117.859
20
-105.034
40
0.5
50
-90
51
-0
0
ARC
8
BLACK
10
117.859
20
-90.4135
40
0.5
50
-0
51
90
0
ARC
8
BLACK
10
108.299
20
-89.9135
40
0.5
50
90
51
150
0
ARC
8
BLACK
10
103.239
20
-105.034
40
0.5
50
180
51
270
0
ARC
8
BLACK
10
112.799
20
-89.9135
40
0.5
50
30
51
90
0
ARC
8
BLACK
10
113.665
20
-89.4135
40
0.499999
50
-150
51
-90
0
LINE
8
BLACK
6
CONTINUOUS
10
113.665
20
-89.9135
11
117.859
21
-89.9135
0
LINE
8
BLACK
6
CONTINUOUS
10
108.299
20
-89.4135
11
112.799
21
-89.4135
0
LINE
8
BLACK
6
CONTINUOUS
10
117.859
20
-105.534
11
103.239
21
-105.534
0
LINE
8
BLACK
6
CONTINUOUS
10
118.359
20
-90.4135
11
118.359
21
-105.034
0
LINE
8
BLACK
6
CONTINUOUS
10
103.239
20
-89.9135
11
107.433
21
-89.9135
0
LINE
8
BLACK
6
CONTINUOUS
10
102.739
20
-105.034
11
102.739
21
-90.4135
0
ARC
8
BLACK
10
122.239
20
-69.0385
40
0.5
50
90
51
180
0
ARC
8
BLACK
10
126.433
20
-68.0385
40
0.5
50
-90
51
-30
0
ARC
8
BLACK
10
136.859
20
-83.6585
40
0.5
50
-90
51
-0
0
ARC
8
BLACK
10
136.859
20
-69.0385
40
0.5
50
-0
51
90
0
ARC
8
BLACK
10
127.299
20
-68.5385
40
0.5
50
90
51
150
0
ARC
8
BLACK
10
122.239
20
-83.6585
40
0.5
50
180
51
270
0
ARC
8
BLACK
10
131.799
20
-68.5385
40
0.5
50
30
51
90
0
ARC
8
BLACK
10
132.665
20
-68.0385
40
0.499999
50
-150
51
-90
0
LINE
8
BLACK
6
CONTINUOUS
10
132.665
20
-68.5385
11
136.859
21
-68.5385
0
LINE
8
BLACK
6
CONTINUOUS
10
127.299
20
-68.0385
11
131.799
21
-68.0385
0
LINE
8
BLACK
6
CONTINUOUS
10
136.859
20
-84.1585
11
122.239
21
-84.1585
0
LINE
8
BLACK
6
CONTINUOUS
10
137.359
20
-69.0385
11
137.359
21
-83.6585
0
LINE
8
BLACK
6
CONTINUOUS
10
122.239
20
-68.5385
11
126.433
21
-68.5385
0
LINE
8
BLACK
6
CONTINUOUS
10
121.739
20
-83.6585
11
121.739
21
-69.0385
0
ARC
8
BLACK
10
122.239
20
-107.039
40
0.5
50
90
51
180
0
ARC
8
BLACK
10
126.433
20
-106.039
40
0.5
50
-90
51
-30
0
ARC
8
BLACK
10
136.859
20
-121.659
40
0.5
50
-90
51
-0
0
ARC
8
BLACK
10
136.859
20
-107.039
40
0.5
50
-0
51
90
0
ARC
8
BLACK
10
127.299
20
-106.539
40
0.5
50
90
51
150
0
ARC
8
BLACK
10
122.239
20
-121.659
40
0.5
50
180
51
270
0
ARC
8
BLACK
10
131.799
20
-106.539
40
0.5
50
30
51
90
0
ARC
8
BLACK
10
132.665
20
-106.039
40
0.499999
50
-150
51
-90
0
LINE
8
BLACK
6
CONTINUOUS
10
132.665
20
-106.539
11
136.859
21
-106.539
0
LINE
8
BLACK
6
CONTINUOUS
10
127.299
20
-106.039
11
131.799
21
-106.039
0
LINE
8
BLACK
6
CONTINUOUS
10
136.859
20
-122.159
11
122.239
21
-122.159
0
LINE
8
BLACK
6
CONTINUOUS
10
137.359
20
-107.039
11
137.359
21
-121.659
0
LINE
8
BLACK
6
CONTINUOUS
10
122.239
20
-106.539
11
126.433
21
-106.539
0
LINE
8
BLACK
6
CONTINUOUS
10
121.739
20
-121.659
11
121.739
21
-107.039
0
ARC
8
BLACK
10
122.239
20
-88.0385
40
0.5
50
90
51
180
0
ARC
8
BLACK
10
126.433
20
-87.0385
40
0.5
50
-90
51
-30
0
ARC
8
BLACK
10
136.859
20
-102.659
40
0.5
50
-90
51
-0
0
ARC
8
BLACK
10
136.859
20
-88.0385
40
0.5
50
-0
51
90
0
ARC
8
BLACK
10
127.299
20
-87.5385
40
0.5
50
90
51
150
0
ARC
8
BLACK
10
122.239
20
-102.659
40
0.5
50
180
51
270
0
ARC
8
BLACK
10
131.799
20
-87.5385
40
0.5
50
30
51
90
0
ARC
8
BLACK
10
132.665
20
-87.0385
40
0.499999
50
-150
51
-90
0
LINE
8
BLACK
6
CONTINUOUS
10
132.665
20
-87.5385
11
136.859
21
-87.5385
0
LINE
8
BLACK
6
CONTINUOUS
10
127.299
20
-87.0385
11
131.799
21
-87.0385
0
LINE
8
BLACK
6
CONTINUOUS
10
136.859
20
-103.159
11
122.239
21
-103.159
0
LINE
8
BLACK
6
CONTINUOUS
10
137.359
20
-88.0385
11
137.359
21
-102.659
0
LINE
8
BLACK
6
CONTINUOUS
10
122.239
20
-87.5385
11
126.433
21
-87.5385
0
LINE
8
BLACK
6
CONTINUOUS
10
121.739
20
-102.659
11
121.739
21
-88.0385
0
ARC
8
BLACK
10
141.239
20
-109.414
40
0.5
50
90
51
180
0
ARC
8
BLACK
10
145.433
20
-108.414
40
0.5
50
-90
51
-30
0
ARC
8
BLACK
10
155.859
20
-124.034
40
0.5
50
-90
51
-0
0
ARC
8
BLACK
10
155.859
20
-109.414
40
0.5
50
-0
51
90
0
ARC
8
BLACK
10
146.299
20
-108.914
40
0.5
50
90
51
150
0
ARC
8
BLACK
10
141.239
20
-124.034
40
0.5
50
180
51
270
0
ARC
8
BLACK
10
150.799
20
-108.914
40
0.5
50
30
51
90
0
ARC
8
BLACK
10
151.665
20
-108.414
40
0.499999
50
-150
51
-90
0
LINE
8
BLACK
6
CONTINUOUS
10
151.665
20
-108.914
11
155.859
21
-108.914
0
LINE
8
BLACK
6
CONTINUOUS
10
146.299
20
-108.414
11
150.799
21
-108.414
0
LINE
8
BLACK
6
CONTINUOUS
10
155.859
20
-124.534
11
141.239
21
-124.534
0
LINE
8
BLACK
6
CONTINUOUS
10
156.359
20
-109.414
11
156.359
21
-124.034
0
LINE
8
BLACK
6
CONTINUOUS
10
141.239
20
-108.914
11
145.433
21
-108.914
0
LINE
8
BLACK
6
CONTINUOUS
10
140.739
20
-124.034
11
140.739
21
-109.414
0
ARC
8
BLACK
10
141.239
20
-71.4135
40
0.5
50
90
51
180
0
ARC
8
BLACK
10
145.433
20
-70.4135
40
0.5
50
-90
51
-30
0
ARC
8
BLACK
10
155.859
20
-86.0335
40
0.5
50
-90
51
-0
0
ARC
8
BLACK
10
155.859
20
-71.4135
40
0.5
50
-0
51
90
0
ARC
8
BLACK
10
146.299
20
-70.9135
40
0.5
50
90
51
150
0
ARC
8
BLACK
10
141.239
20
-86.0335
40
0.5
50
180
51
270
0
ARC
8
BLACK
10
150.799
20
-70.9135
40
0.5
50
30
51
90
0
ARC
8
BLACK
10
151.665
20
-70.4135
40
0.499999
50
-150
51
-90
0
LINE
8
BLACK
6
CONTINUOUS
10
151.665
20
-70.9135
11
155.859
21
-70.9135
0
LINE
8
BLACK
6
CONTINUOUS
10
146.299
20
-70.4135
11
150.799
21
-70.4135
0
LINE
8
BLACK
6
CONTINUOUS
10
155.859
20
-86.5335
11
141.239
21
-86.5335
0
LINE
8
BLACK
6
CONTINUOUS
10
156.359
20
-71.4135
11
156.359
21
-86.0335
0
LINE
8
BLACK
6
CONTINUOUS
10
141.239
20
-70.9135
11
145.433
21
-70.9135
0
LINE
8
BLACK
6
CONTINUOUS
10
140.739
20
-86.0335
11
140.739
21
-71.4135
0
ARC
8
BLACK
10
141.239
20
-90.4135
40
0.5
50
90
51
180
0
ARC
8
BLACK
10
145.433
20
-89.4135
40
0.5
50
-90
51
-30
0
ARC
8
BLACK
10
155.859
20
-105.034
40
0.5
50
-90
51
-0
0
ARC
8
BLACK
10
155.859
20
-90.4135
40
0.5
50
-0
51
90
0
ARC
8
BLACK
10
146.299
20
-89.9135
40
0.5
50
90
51
150
0
ARC
8
BLACK
10
141.239
20
-105.034
40
0.5
50
180
51
270
0
ARC
8
BLACK
10
150.799
20
-89.9135
40
0.5
50
30
51
90
0
ARC
8
BLACK
10
151.665
20
-89.4135
40
0.499999
50
-150
51
-90
0
LINE
8
BLACK
6
CONTINUOUS
10
151.665
20
-89.9135
11
155.859
21
-89.9135
0
LINE
8
BLACK
6
CONTINUOUS
10
146.299
20
-89.4135
11
150.799
21
-89.4135
0
LINE
8
BLACK
6
CONTINUOUS
10
155.859
20
-105.534
11
141.239
21
-105.534
0
LINE
8
BLACK
6
CONTINUOUS
10
156.359
20
-90.4135
11
156.359
21
-105.034
0
LINE
8
BLACK
6
CONTINUOUS
10
141.239
20
-89.9135
11
145.433
21
-89.9135
0
LINE
8
BLACK
6
CONTINUOUS
10
140.739
20
-105.034
11
140.739
21
-90.4135
0
ARC
8
BLACK
10
160.239
20
-92.7885
40
0.5
50
90
51
180
0
ARC
8
BLACK
10
164.433
20
-91.7885
40
0.5
50
-90
51
-30
0
ARC
8
BLACK
10
174.859
20
-107.409
40
0.5
50
-90
51
-0
0
ARC
8
BLACK
10
174.859
20
-92.7885
40
0.5
50
-0
51
90
0
ARC
8
BLACK
10
165.299
20
-92.2885
40
0.5
50
90
51
150
0
ARC
8
BLACK
10
160.239
20
-107.409
40
0.5
50
180
51
270
0
ARC
8
BLACK
10
169.799
20
-92.2885
40
0.5
50
30
51
90
0
ARC
8
BLACK
10
170.665
20
-91.7885
40
0.499999
50
-150
51
-90
0
LINE
8
BLACK
6
CONTINUOUS
10
170.665
20
-92.2885
11
174.859
21
-92.2885
0
LINE
8
BLACK
6
CONTINUOUS
10
165.299
20
-91.7885
11
169.799
21
-91.7885
0
LINE
8
BLACK
6
CONTINUOUS
10
174.859
20
-107.909
11
160.239
21
-107.909
0
LINE
8
BLACK
6
CONTINUOUS
10
175.359
20
-92.7885
11
175.359
21
-107.409
0
LINE
8
BLACK
6
CONTINUOUS
10
160.239
20
-92.2885
11
164.433
21
-92.2885
0
LINE
8
BLACK
6
CONTINUOUS
10
159.739
20
-107.409
11
159.739
21
-92.7885
0
ARC
8
BLACK
10
160.239
20
-73.7885
40
0.5
50
90
51
180
0
ARC
8
BLACK
10
164.433
20
-72.7885
40
0.5
50
-90
51
-30
0
ARC
8
BLACK
10
174.859
20
-88.4085
40
0.5
50
-90
51
-0
0
ARC
8
BLACK
10
174.859
20
-73.7885
40
0.5
50
-0
51
90
0
ARC
8
BLACK
10
165.299
20
-73.2885
40
0.5
50
90
51
150
0
ARC
8
BLACK
10
160.239
20
-88.4085
40
0.5
50
180
51
270
0
ARC
8
BLACK
10
169.799
20
-73.2885
40
0.5
50
30
51
90
0
ARC
8
BLACK
10
170.665
20
-72.7885
40
0.499999
50
-150
51
-90
0
LINE
8
BLACK
6
CONTINUOUS
10
170.665
20
-73.2885
11
174.859
21
-73.2885
0
LINE
8
BLACK
6
CONTINUOUS
10
165.299
20
-72.7885
11
169.799
21
-72.7885
0
LINE
8
BLACK
6
CONTINUOUS
10
174.859
20
-88.9085
11
160.239
21
-88.9085
0
LINE
8
BLACK
6
CONTINUOUS
10
175.359
20
-73.7885
11
175.359
21
-88.4085
0
LINE
8
BLACK
6
CONTINUOUS
10
160.239
20
-73.2885
11
164.433
21
-73.2885
0
LINE
8
BLACK
6
CONTINUOUS
10
159.739
20
-88.4085
11
159.739
21
-73.7885
0
ARC
8
BLACK
10
160.239
20
-111.789
40
0.5
50
90
51
180
0
ARC
8
BLACK
10
164.433
20
-110.789
40
0.5
50
-90
51
-30
0
ARC
8
BLACK
10
174.859
20
-126.409
40
0.5
50
-90
51
-0
0
ARC
8
BLACK
10
174.859
20
-111.789
40
0.5
50
-0
51
90
0
ARC
8
BLACK
10
165.299
20
-111.289
40
0.5
50
90
51
150
0
ARC
8
BLACK
10
160.239
20
-126.409
40
0.5
50
180
51
270
0
ARC
8
BLACK
10
169.799
20
-111.289
40
0.5
50
30
51
90
0
ARC
8
BLACK
10
170.665
20
-110.789
40
0.499999
50
-150
51
-90
0
LINE
8
BLACK
6
CONTINUOUS
10
170.665
20
-111.289
11
174.859
21
-111.289
0
LINE
8
BLACK
6
CONTINUOUS
10
165.299
20
-110.789
11
169.799
21
-110.789
0
LINE
8
BLACK
6
CONTINUOUS
10
174.859
20
-126.909
11
160.239
21
-126.909
0
LINE
8
BLACK
6
CONTINUOUS
10
175.359
20
-111.789
11
175.359
21
-126.409
0
LINE
8
BLACK
6
CONTINUOUS
10
160.239
20
-111.289
11
164.433
21
-111.289
0
LINE
8
BLACK
6
CONTINUOUS
10
159.739
20
-126.409
11
159.739
21
-111.789
0
ARC
8
BLACK
10
46.2449
20
-90.2215
40
0.5
50
90
51
180
0
ARC
8
BLACK
10
50.4389
20
-89.2215
40
0.5
50
-90
51
-30
0
ARC
8
BLACK
10
60.8649
20
-104.842
40
0.5
50
-90
51
-0
0
ARC
8
BLACK
10
60.8649
20
-90.2215
40
0.5
50
-0
51
90
0
ARC
8
BLACK
10
51.3049
20
-89.7215
40
0.5
50
90
51
150
0
ARC
8
BLACK
10
46.2449
20
-104.842
40
0.5
50
180
51
270
0
ARC
8
BLACK
10
55.8049
20
-89.7215
40
0.5
50
30
51
90
0
ARC
8
BLACK
10
56.6709
20
-89.2215
40
0.499999
50
-150
51
-90
0
LINE
8
BLACK
6
CONTINUOUS
10
56.6709
20
-89.7215
11
60.8649
21
-89.7215
0
LINE
8
BLACK
6
CONTINUOUS
10
51.3049
20
-89.2215
11
55.8049
21
-89.2215
0
LINE
8
BLACK
6
CONTINUOUS
10
60.8649
20
-105.342
11
46.2449
21
-105.342
0
LINE
8
BLACK
6
CONTINUOUS
10
61.3649
20
-90.2215
11
61.3649
21
-104.842
0
LINE
8
BLACK
6
CONTINUOUS
10
46.2449
20
-89.7215
11
50.4389
21
-89.7215
0
LINE
8
BLACK
6
CONTINUOUS
10
45.7449
20
-104.842
11
45.7449
21
-90.2215
  0
ENDSEC
  0
EOF
