  0
SECTION
  2
HEADER
  9
$ANGBASE
  50
0.0
  9
$ANGDIR
  70
1
  9
$MEASUREMENT
  70
1
  0
ENDSEC
  0
SECTION
  2
TABLES
  0
TABLE
  2
LTYPE
  70
4
  0
LTYPE
  5
40F
  2
CONTINUOUS
  70
0
  3
Solid line
  72
65
  73
0
  40
0.0
  0
LTYPE
  5
410
  2
DASHDOT
 70
0
  3
Dash Dot ____ _ ____ _
 72
65
 73
4
 40
2.0
 49
1.25
 49
-0.25
 49
0.25
 49
-0.25
  0
LTYPE
  5
411
  2
DASHED
 70
0
  3
Dashed __ __ __ __ __
 72
65
 73
2
 40
0.75
 49
0.5
 49
-0.25
  0
LTYPE
  5
43B
  2
DOTTED
 70
0
  3
Dotted .  .  .  .
 72
65
 73
2
 40
0.2
 49
0.0
 49
-0.2
  0
ENDTAB
  0
TABLE
  2
STYLE
  70
4
  0
STYLE
  2
KICAD
  70
0
  40
0
  41
1
  42
1
  50
0
  71
0
  3
isocp.shx
  0
STYLE
  2
KICADB
  70
0
  40
0
  41
1
  42
1
  50
0
  71
0
  3
isocp.shx
  0
STYLE
  2
KICADI
  70
0
  40
0
  41
1
  42
1
  50
15
  71
0
  3
isocp.shx
  0
STYLE
  2
KICADBI
  70
0
  40
0
  41
1
  42
1
  50
15
  71
0
  3
isocp.shx
  0
ENDTAB
  0
TABLE
  2
LAYER
  70
1
  0
LAYER
  2
BLACK
  70
0
  62
7
  6
CONTINUOUS
  0
ENDTAB
  0
ENDSEC
  0
SECTION
  2
ENTITIES
0
LINE
8
BLACK
6
CONTINUOUS
10
-128.945
20
-41.2042
11
-110.89
21
-41.2042
0
LINE
8
BLACK
6
CONTINUOUS
10
-110.394
20
-9.24312
11
-110.394
21
-22.2
0
ARC
8
BLACK
10
-110.89
20
-41.7042
40
0.5
50
-0
51
90
0
LINE
8
BLACK
6
CONTINUOUS
10
-110.894
20
-22.7
11
-128.94
21
-22.7042
0
LINE
8
BLACK
6
CONTINUOUS
10
-129.44
20
-23.2042
11
-129.445
21
-40.7042
0
ARC
8
BLACK
10
-128.945
20
-40.7042
40
0.5
50
-180
51
-90
0
ARC
8
BLACK
10
-128.94
20
-23.2042
40
0.5
50
90
51
180
0
LINE
8
BLACK
6
CONTINUOUS
10
-110.391
20
-64.4
11
-110.39
21
-41.7042
0
ARC
8
BLACK
10
-110.894
20
-22.2
40
0.5
50
-90
51
-0
0
ARC
8
BLACK
10
3.38728
20
-57.4352
40
0.850368
50
-178.315
51
-125.788
0
ARC
8
BLACK
10
21.04
20
-70.2
40
1.38677
50
-33.9765
51
56.2469
0
LINE
8
BLACK
6
CONTINUOUS
10
21.8105
20
-69.047
11
2.89
21
-58.125
0
ARC
8
BLACK
10
8.68425
20
-91.661
40
1.38677
50
-123.977
51
-33.7531
0
ARC
8
BLACK
10
-7.3726
20
-87.8184
40
3.41439
50
73.1872
51
84.4006
0
LINE
8
BLACK
6
CONTINUOUS
10
9.83726
20
-92.4315
11
22.19
21
-70.975
0
LINE
8
BLACK
6
CONTINUOUS
10
-6.385
20
-84.55
11
7.90925
21
-92.811
0
LINE
8
BLACK
6
CONTINUOUS
10
-43.71
20
-79.65
11
-7.03944
21
-84.4203
0
ARC
8
BLACK
10
-43.71
20
-79.15
40
0.5
50
-135
51
-90
0
LINE
8
BLACK
6
CONTINUOUS
10
-54.6064
20
-65.0464
11
-44.0636
21
-79.5036
0
LINE
8
BLACK
6
CONTINUOUS
10
2.54
20
-6.9
11
2.53728
21
-57.4602
0
ARC
8
BLACK
10
2.04
20
-6.9
40
0.5
50
-0
51
90
0
ARC
8
BLACK
10
-54.96
20
-65.4
40
0.5
50
45
51
90
0
ARC
8
BLACK
10
-109.891
20
-64.4
40
0.5
50
-180
51
-90
0
ARC
8
BLACK
10
-109.96
20
-9.10514
40
0.455139
50
-270
51
-162.352
0
ARC
8
BLACK
10
-72.96
20
-8.15
40
0.5
50
-90
51
-0
0
ARC
8
BLACK
10
-71.96
20
-4.4
40
0.5
50
90
51
180
0
ARC
8
BLACK
10
-53.96
20
-3.4
40
0.5
50
-90
51
-0
0
ARC
8
BLACK
10
-52.96
20
-2.15
40
0.5
50
90
51
180
0
ARC
8
BLACK
10
-35.96
20
-2.15
40
0.5
50
-0
51
90
0
ARC
8
BLACK
10
-34.96
20
-3.4
40
0.5
50
-180
51
-90
0
ARC
8
BLACK
10
-16.96
20
-4.4
40
0.5
50
-0
51
90
0
ARC
8
BLACK
10
-15.96
20
-5.9
40
0.5
50
-180
51
-90
0
LINE
8
BLACK
6
CONTINUOUS
10
-54.96
20
-64.9
11
-109.891
21
-64.9
0
LINE
8
BLACK
6
CONTINUOUS
10
-72.96
20
-8.65
11
-109.96
21
-8.65
0
LINE
8
BLACK
6
CONTINUOUS
10
-72.46
20
-4.4
11
-72.46
21
-8.15
0
LINE
8
BLACK
6
CONTINUOUS
10
-53.96
20
-3.9
11
-71.96
21
-3.9
0
LINE
8
BLACK
6
CONTINUOUS
10
-53.46
20
-2.15
11
-53.46
21
-3.4
0
LINE
8
BLACK
6
CONTINUOUS
10
-35.96
20
-1.65
11
-52.96
21
-1.65
0
LINE
8
BLACK
6
CONTINUOUS
10
-35.46
20
-3.4
11
-35.46
21
-2.15
0
LINE
8
BLACK
6
CONTINUOUS
10
-16.96
20
-3.9
11
-34.96
21
-3.9
0
LINE
8
BLACK
6
CONTINUOUS
10
-16.46
20
-5.9
11
-16.46
21
-4.4
0
LINE
8
BLACK
6
CONTINUOUS
10
2.04
20
-6.4
11
-15.96
21
-6.4
0
ARC
8
BLACK
10
-31.8154
20
-62.3735
40
0.499999
50
-150
51
-90
0
ARC
8
BLACK
10
-32.6814
20
-62.8735
40
0.5
50
30
51
90
0
ARC
8
BLACK
10
-42.2414
20
-77.9935
40
0.5
50
180
51
270
0
ARC
8
BLACK
10
-37.1814
20
-62.8735
40
0.5
50
90
51
150
0
ARC
8
BLACK
10
-27.6214
20
-63.3735
40
0.5
50
-0
51
90
0
ARC
8
BLACK
10
-27.6214
20
-77.9935
40
0.5
50
-90
51
-0
0
ARC
8
BLACK
10
-38.0474
20
-62.3735
40
0.5
50
-90
51
-30
0
ARC
8
BLACK
10
-42.2414
20
-63.3735
40
0.5
50
90
51
180
0
LINE
8
BLACK
6
CONTINUOUS
10
-31.8154
20
-62.8735
11
-27.6214
21
-62.8735
0
LINE
8
BLACK
6
CONTINUOUS
10
-37.1814
20
-62.3735
11
-32.6814
21
-62.3735
0
LINE
8
BLACK
6
CONTINUOUS
10
-27.1214
20
-63.3735
11
-27.1214
21
-77.9935
0
LINE
8
BLACK
6
CONTINUOUS
10
-42.2414
20
-62.8735
11
-38.0474
21
-62.8735
0
LINE
8
BLACK
6
CONTINUOUS
10
-42.7414
20
-77.9935
11
-42.7414
21
-63.3735
0
LINE
8
BLACK
6
CONTINUOUS
10
-27.6214
20
-78.4935
11
-31.8154
21
-78.4935
0
LINE
8
BLACK
6
CONTINUOUS
10
-32.6814
20
-78.9935
11
-37.1814
21
-78.9935
0
LINE
8
BLACK
6
CONTINUOUS
10
-38.0474
20
-78.4935
11
-42.2414
21
-78.4935
0
ARC
8
BLACK
10
-31.8154
20
-78.9935
40
0.5
50
90
51
150
0
ARC
8
BLACK
10
-37.1814
20
-78.4935
40
0.5
50
-150
51
-90
0
ARC
8
BLACK
10
-38.0474
20
-78.9935
40
0.499999
50
30
51
90
0
ARC
8
BLACK
10
-32.6814
20
-78.4935
40
0.5
50
-90
51
-30
0
ARC
8
BLACK
10
2.64937
20
-70.2819
40
0.5
50
-89.9999
51
-29.9999
0
ARC
8
BLACK
10
2.64937
20
-71.2819
40
0.5
50
89.9999
51
150
0
ARC
8
BLACK
10
10.9637
20
-87.1211
40
0.499999
50
-120
51
-30
0
ARC
8
BLACK
10
0.399369
20
-75.179
40
0.499999
50
150
51
210
0
ARC
8
BLACK
10
5.61238
20
-67.1498
40
0.499999
50
60
51
150
0
ARC
8
BLACK
10
18.2737
20
-74.4598
40
0.499999
50
-30
51
60
0
ARC
8
BLACK
10
-0.466656
20
-75.679
40
0.5
50
-30
51
30
0
ARC
8
BLACK
10
-1.69762
20
-79.8111
40
0.5
50
150
51
240
0
LINE
8
BLACK
6
CONTINUOUS
10
3.08238
20
-70.5319
11
5.17937
21
-66.8998
0
LINE
8
BLACK
6
CONTINUOUS
10
-0.033643
20
-74.929
11
2.21636
21
-71.0319
0
LINE
8
BLACK
6
CONTINUOUS
10
5.86238
20
-66.7168
11
18.5237
21
-74.0268
0
LINE
8
BLACK
6
CONTINUOUS
10
-2.13063
20
-79.5611
11
-0.033643
21
-75.929
0
LINE
8
BLACK
6
CONTINUOUS
10
10.7137
20
-87.5541
11
-1.94762
21
-80.2441
0
LINE
8
BLACK
6
CONTINUOUS
10
18.7067
20
-74.7098
11
16.6097
21
-78.3419
0
LINE
8
BLACK
6
CONTINUOUS
10
16.6097
20
-79.3419
11
14.3597
21
-83.239
0
LINE
8
BLACK
6
CONTINUOUS
10
13.4937
20
-83.739
11
11.3967
21
-87.3711
0
ARC
8
BLACK
10
17.0427
20
-78.5919
40
0.499999
50
150
51
210
0
ARC
8
BLACK
10
13.9267
20
-82.989
40
0.5
50
-90
51
-30
0
ARC
8
BLACK
10
13.9267
20
-83.989
40
0.5
50
90
51
150
0
ARC
8
BLACK
10
16.1767
20
-79.0919
40
0.5
50
-30
51
30
0
ARC
8
BLACK
10
-8.80834
20
-66.1719
40
0.499999
50
-165
51
-105
0
ARC
8
BLACK
10
-9.77426
20
-66.4307
40
0.5
50
15.0001
51
75.0001
0
ARC
8
BLACK
10
-22.9219
20
-78.5612
40
0.5
50
165
51
255
0
ARC
8
BLACK
10
-14.1209
20
-65.266
40
0.5
50
75.0001
51
135
0
ARC
8
BLACK
10
-5.01609
20
-68.2233
40
0.5
50
-15.0001
51
74.9999
0
ARC
8
BLACK
10
-8.80002
20
-82.3451
40
0.5
50
-105
51
-14.9999
0
ARC
8
BLACK
10
-14.828
20
-64.5589
40
0.5
50
-105
51
-44.9999
0
ARC
8
BLACK
10
-19.1379
20
-64.4393
40
0.5
50
74.9999
51
165
0
LINE
8
BLACK
6
CONTINUOUS
10
-8.93775
20
-66.6548
11
-4.88668
21
-67.7403
0
LINE
8
BLACK
6
CONTINUOUS
10
-13.9915
20
-64.783
11
-9.64485
21
-65.9477
0
LINE
8
BLACK
6
CONTINUOUS
10
-4.53312
20
-68.3527
11
-8.31706
21
-82.4745
0
LINE
8
BLACK
6
CONTINUOUS
10
-19.0085
20
-63.9564
11
-14.9574
21
-65.0419
0
LINE
8
BLACK
6
CONTINUOUS
10
-23.4048
20
-78.4318
11
-19.6209
21
-64.3099
0
LINE
8
BLACK
6
CONTINUOUS
10
-8.92943
20
-82.8281
11
-12.9805
21
-81.7426
0
LINE
8
BLACK
6
CONTINUOUS
10
-13.9464
20
-82.0014
11
-18.2931
21
-80.8367
0
LINE
8
BLACK
6
CONTINUOUS
10
-19.0002
20
-80.1296
11
-23.0513
21
-79.0441
0
ARC
8
BLACK
10
-13.1099
20
-82.2255
40
0.5
50
75.0001
51
135
0
ARC
8
BLACK
10
-18.1637
20
-80.3538
40
0.5
50
-165
51
-105
0
ARC
8
BLACK
10
-19.1296
20
-80.6126
40
0.499999
50
15.0001
51
75.0001
0
ARC
8
BLACK
10
-13.817
20
-81.5184
40
0.5
50
-105
51
-44.9999
0
LINE
8
BLACK
6
CONTINUOUS
10
-117.329
20
-24.0215
11
-113.135
21
-24.0215
0
LINE
8
BLACK
6
CONTINUOUS
10
-122.695
20
-23.5215
11
-118.195
21
-23.5215
0
LINE
8
BLACK
6
CONTINUOUS
10
-113.135
20
-39.6415
11
-127.755
21
-39.6415
0
LINE
8
BLACK
6
CONTINUOUS
10
-112.635
20
-24.5215
11
-112.635
21
-39.1415
0
LINE
8
BLACK
6
CONTINUOUS
10
-127.755
20
-24.0215
11
-123.561
21
-24.0215
0
LINE
8
BLACK
6
CONTINUOUS
10
-128.255
20
-39.1415
11
-128.255
21
-24.5215
0
ARC
8
BLACK
10
-127.755
20
-24.5215
40
0.5
50
90
51
180
0
ARC
8
BLACK
10
-123.561
20
-23.5215
40
0.5
50
-90
51
-30
0
ARC
8
BLACK
10
-113.135
20
-39.1415
40
0.5
50
-90
51
-0
0
ARC
8
BLACK
10
-113.135
20
-24.5215
40
0.5
50
-0
51
90
0
ARC
8
BLACK
10
-122.695
20
-24.0215
40
0.5
50
90
51
150
0
ARC
8
BLACK
10
-127.755
20
-39.1415
40
0.5
50
180
51
270
0
ARC
8
BLACK
10
-118.195
20
-24.0215
40
0.5
50
30
51
90
0
ARC
8
BLACK
10
-117.329
20
-23.5215
40
0.499999
50
-150
51
-90
0
LINE
8
BLACK
6
CONTINUOUS
10
-3.33537
20
-45.5885
11
0.8586
21
-45.5885
0
LINE
8
BLACK
6
CONTINUOUS
10
-8.7014
20
-45.0885
11
-4.2014
21
-45.0885
0
LINE
8
BLACK
6
CONTINUOUS
10
0.8586
20
-61.2085
11
-13.7614
21
-61.2085
0
LINE
8
BLACK
6
CONTINUOUS
10
1.3586
20
-46.0885
11
1.3586
21
-60.7085
0
LINE
8
BLACK
6
CONTINUOUS
10
-13.7614
20
-45.5885
11
-9.56743
21
-45.5885
0
LINE
8
BLACK
6
CONTINUOUS
10
-14.2614
20
-60.7085
11
-14.2614
21
-46.0885
0
ARC
8
BLACK
10
-13.7614
20
-46.0885
40
0.5
50
90
51
180
0
ARC
8
BLACK
10
-9.56743
20
-45.0885
40
0.5
50
-90
51
-30
0
ARC
8
BLACK
10
0.8586
20
-60.7085
40
0.5
50
-90
51
-0
0
ARC
8
BLACK
10
0.8586
20
-46.0885
40
0.5
50
-0
51
90
0
ARC
8
BLACK
10
-8.7014
20
-45.5885
40
0.5
50
90
51
150
0
ARC
8
BLACK
10
-13.7614
20
-60.7085
40
0.5
50
180
51
270
0
ARC
8
BLACK
10
-4.2014
20
-45.5885
40
0.5
50
30
51
90
0
ARC
8
BLACK
10
-3.33537
20
-45.0885
40
0.499999
50
-150
51
-90
0
LINE
8
BLACK
6
CONTINUOUS
10
-3.33537
20
-7.58853
11
0.8586
21
-7.58853
0
LINE
8
BLACK
6
CONTINUOUS
10
-8.7014
20
-7.08853
11
-4.2014
21
-7.08853
0
LINE
8
BLACK
6
CONTINUOUS
10
0.8586
20
-23.2085
11
-13.7614
21
-23.2085
0
LINE
8
BLACK
6
CONTINUOUS
10
1.3586
20
-8.08853
11
1.3586
21
-22.7085
0
LINE
8
BLACK
6
CONTINUOUS
10
-13.7614
20
-7.58853
11
-9.56743
21
-7.58853
0
LINE
8
BLACK
6
CONTINUOUS
10
-14.2614
20
-22.7085
11
-14.2614
21
-8.08853
0
ARC
8
BLACK
10
-13.7614
20
-8.08853
40
0.5
50
90
51
180
0
ARC
8
BLACK
10
-9.56743
20
-7.08853
40
0.5
50
-90
51
-30
0
ARC
8
BLACK
10
0.8586
20
-22.7085
40
0.5
50
-90
51
-0
0
ARC
8
BLACK
10
0.8586
20
-8.08853
40
0.5
50
-0
51
90
0
ARC
8
BLACK
10
-8.7014
20
-7.58853
40
0.5
50
90
51
150
0
ARC
8
BLACK
10
-13.7614
20
-22.7085
40
0.5
50
180
51
270
0
ARC
8
BLACK
10
-4.2014
20
-7.58853
40
0.5
50
30
51
90
0
ARC
8
BLACK
10
-3.33537
20
-7.08853
40
0.499999
50
-150
51
-90
0
LINE
8
BLACK
6
CONTINUOUS
10
-3.33537
20
-26.5885
11
0.8586
21
-26.5885
0
LINE
8
BLACK
6
CONTINUOUS
10
-8.7014
20
-26.0885
11
-4.2014
21
-26.0885
0
LINE
8
BLACK
6
CONTINUOUS
10
0.8586
20
-42.2085
11
-13.7614
21
-42.2085
0
LINE
8
BLACK
6
CONTINUOUS
10
1.3586
20
-27.0885
11
1.3586
21
-41.7085
0
LINE
8
BLACK
6
CONTINUOUS
10
-13.7614
20
-26.5885
11
-9.56743
21
-26.5885
0
LINE
8
BLACK
6
CONTINUOUS
10
-14.2614
20
-41.7085
11
-14.2614
21
-27.0885
0
ARC
8
BLACK
10
-13.7614
20
-27.0885
40
0.5
50
90
51
180
0
ARC
8
BLACK
10
-9.56743
20
-26.0885
40
0.5
50
-90
51
-30
0
ARC
8
BLACK
10
0.8586
20
-41.7085
40
0.5
50
-90
51
-0
0
ARC
8
BLACK
10
0.8586
20
-27.0885
40
0.5
50
-0
51
90
0
ARC
8
BLACK
10
-8.7014
20
-26.5885
40
0.5
50
90
51
150
0
ARC
8
BLACK
10
-13.7614
20
-41.7085
40
0.5
50
180
51
270
0
ARC
8
BLACK
10
-4.2014
20
-26.5885
40
0.5
50
30
51
90
0
ARC
8
BLACK
10
-3.33537
20
-26.0885
40
0.499999
50
-150
51
-90
0
LINE
8
BLACK
6
CONTINUOUS
10
-22.3354
20
-24.2135
11
-18.1414
21
-24.2135
0
LINE
8
BLACK
6
CONTINUOUS
10
-27.7014
20
-23.7135
11
-23.2014
21
-23.7135
0
LINE
8
BLACK
6
CONTINUOUS
10
-18.1414
20
-39.8335
11
-32.7614
21
-39.8335
0
LINE
8
BLACK
6
CONTINUOUS
10
-17.6414
20
-24.7135
11
-17.6414
21
-39.3335
0
LINE
8
BLACK
6
CONTINUOUS
10
-32.7614
20
-24.2135
11
-28.5674
21
-24.2135
0
LINE
8
BLACK
6
CONTINUOUS
10
-33.2614
20
-39.3335
11
-33.2614
21
-24.7135
0
ARC
8
BLACK
10
-32.7614
20
-24.7135
40
0.5
50
90
51
180
0
ARC
8
BLACK
10
-28.5674
20
-23.7135
40
0.5
50
-90
51
-30
0
ARC
8
BLACK
10
-18.1414
20
-39.3335
40
0.5
50
-90
51
-0
0
ARC
8
BLACK
10
-18.1414
20
-24.7135
40
0.5
50
-0
51
90
0
ARC
8
BLACK
10
-27.7014
20
-24.2135
40
0.5
50
90
51
150
0
ARC
8
BLACK
10
-32.7614
20
-39.3335
40
0.5
50
180
51
270
0
ARC
8
BLACK
10
-23.2014
20
-24.2135
40
0.5
50
30
51
90
0
ARC
8
BLACK
10
-22.3354
20
-23.7135
40
0.499999
50
-150
51
-90
0
LINE
8
BLACK
6
CONTINUOUS
10
-22.3354
20
-5.21353
11
-18.1414
21
-5.21353
0
LINE
8
BLACK
6
CONTINUOUS
10
-27.7014
20
-4.71353
11
-23.2014
21
-4.71353
0
LINE
8
BLACK
6
CONTINUOUS
10
-18.1414
20
-20.8335
11
-32.7614
21
-20.8335
0
LINE
8
BLACK
6
CONTINUOUS
10
-17.6414
20
-5.71353
11
-17.6414
21
-20.3335
0
LINE
8
BLACK
6
CONTINUOUS
10
-32.7614
20
-5.21353
11
-28.5674
21
-5.21353
0
LINE
8
BLACK
6
CONTINUOUS
10
-33.2614
20
-20.3335
11
-33.2614
21
-5.71353
0
ARC
8
BLACK
10
-32.7614
20
-5.71353
40
0.5
50
90
51
180
0
ARC
8
BLACK
10
-28.5674
20
-4.71353
40
0.5
50
-90
51
-30
0
ARC
8
BLACK
10
-18.1414
20
-20.3335
40
0.5
50
-90
51
-0
0
ARC
8
BLACK
10
-18.1414
20
-5.71353
40
0.5
50
-0
51
90
0
ARC
8
BLACK
10
-27.7014
20
-5.21353
40
0.5
50
90
51
150
0
ARC
8
BLACK
10
-32.7614
20
-20.3335
40
0.5
50
180
51
270
0
ARC
8
BLACK
10
-23.2014
20
-5.21353
40
0.5
50
30
51
90
0
ARC
8
BLACK
10
-22.3354
20
-4.71353
40
0.499999
50
-150
51
-90
0
LINE
8
BLACK
6
CONTINUOUS
10
-22.3354
20
-43.2135
11
-18.1414
21
-43.2135
0
LINE
8
BLACK
6
CONTINUOUS
10
-27.7014
20
-42.7135
11
-23.2014
21
-42.7135
0
LINE
8
BLACK
6
CONTINUOUS
10
-18.1414
20
-58.8335
11
-32.7614
21
-58.8335
0
LINE
8
BLACK
6
CONTINUOUS
10
-17.6414
20
-43.7135
11
-17.6414
21
-58.3335
0
LINE
8
BLACK
6
CONTINUOUS
10
-32.7614
20
-43.2135
11
-28.5674
21
-43.2135
0
LINE
8
BLACK
6
CONTINUOUS
10
-33.2614
20
-58.3335
11
-33.2614
21
-43.7135
0
ARC
8
BLACK
10
-32.7614
20
-43.7135
40
0.5
50
90
51
180
0
ARC
8
BLACK
10
-28.5674
20
-42.7135
40
0.5
50
-90
51
-30
0
ARC
8
BLACK
10
-18.1414
20
-58.3335
40
0.5
50
-90
51
-0
0
ARC
8
BLACK
10
-18.1414
20
-43.7135
40
0.5
50
-0
51
90
0
ARC
8
BLACK
10
-27.7014
20
-43.2135
40
0.5
50
90
51
150
0
ARC
8
BLACK
10
-32.7614
20
-58.3335
40
0.5
50
180
51
270
0
ARC
8
BLACK
10
-23.2014
20
-43.2135
40
0.5
50
30
51
90
0
ARC
8
BLACK
10
-22.3354
20
-42.7135
40
0.499999
50
-150
51
-90
0
LINE
8
BLACK
6
CONTINUOUS
10
-41.3354
20
-21.8385
11
-37.1414
21
-21.8385
0
LINE
8
BLACK
6
CONTINUOUS
10
-46.7014
20
-21.3385
11
-42.2014
21
-21.3385
0
LINE
8
BLACK
6
CONTINUOUS
10
-37.1414
20
-37.4585
11
-51.7614
21
-37.4585
0
LINE
8
BLACK
6
CONTINUOUS
10
-36.6414
20
-22.3385
11
-36.6414
21
-36.9585
0
LINE
8
BLACK
6
CONTINUOUS
10
-51.7614
20
-21.8385
11
-47.5674
21
-21.8385
0
LINE
8
BLACK
6
CONTINUOUS
10
-52.2614
20
-36.9585
11
-52.2614
21
-22.3385
0
ARC
8
BLACK
10
-51.7614
20
-22.3385
40
0.5
50
90
51
180
0
ARC
8
BLACK
10
-47.5674
20
-21.3385
40
0.5
50
-90
51
-30
0
ARC
8
BLACK
10
-37.1414
20
-36.9585
40
0.5
50
-90
51
-0
0
ARC
8
BLACK
10
-37.1414
20
-22.3385
40
0.5
50
-0
51
90
0
ARC
8
BLACK
10
-46.7014
20
-21.8385
40
0.5
50
90
51
150
0
ARC
8
BLACK
10
-51.7614
20
-36.9585
40
0.5
50
180
51
270
0
ARC
8
BLACK
10
-42.2014
20
-21.8385
40
0.5
50
30
51
90
0
ARC
8
BLACK
10
-41.3354
20
-21.3385
40
0.499999
50
-150
51
-90
0
LINE
8
BLACK
6
CONTINUOUS
10
-41.3354
20
-40.8385
11
-37.1414
21
-40.8385
0
LINE
8
BLACK
6
CONTINUOUS
10
-46.7014
20
-40.3385
11
-42.2014
21
-40.3385
0
LINE
8
BLACK
6
CONTINUOUS
10
-37.1414
20
-56.4585
11
-51.7614
21
-56.4585
0
LINE
8
BLACK
6
CONTINUOUS
10
-36.6414
20
-41.3385
11
-36.6414
21
-55.9585
0
LINE
8
BLACK
6
CONTINUOUS
10
-51.7614
20
-40.8385
11
-47.5674
21
-40.8385
0
LINE
8
BLACK
6
CONTINUOUS
10
-52.2614
20
-55.9585
11
-52.2614
21
-41.3385
0
ARC
8
BLACK
10
-51.7614
20
-41.3385
40
0.5
50
90
51
180
0
ARC
8
BLACK
10
-47.5674
20
-40.3385
40
0.5
50
-90
51
-30
0
ARC
8
BLACK
10
-37.1414
20
-55.9585
40
0.5
50
-90
51
-0
0
ARC
8
BLACK
10
-37.1414
20
-41.3385
40
0.5
50
-0
51
90
0
ARC
8
BLACK
10
-46.7014
20
-40.8385
40
0.5
50
90
51
150
0
ARC
8
BLACK
10
-51.7614
20
-55.9585
40
0.5
50
180
51
270
0
ARC
8
BLACK
10
-42.2014
20
-40.8385
40
0.5
50
30
51
90
0
ARC
8
BLACK
10
-41.3354
20
-40.3385
40
0.499999
50
-150
51
-90
0
LINE
8
BLACK
6
CONTINUOUS
10
-41.3354
20
-2.83853
11
-37.1414
21
-2.83853
0
LINE
8
BLACK
6
CONTINUOUS
10
-46.7014
20
-2.33853
11
-42.2014
21
-2.33853
0
LINE
8
BLACK
6
CONTINUOUS
10
-37.1414
20
-18.4585
11
-51.7614
21
-18.4585
0
LINE
8
BLACK
6
CONTINUOUS
10
-36.6414
20
-3.33853
11
-36.6414
21
-17.9585
0
LINE
8
BLACK
6
CONTINUOUS
10
-51.7614
20
-2.83853
11
-47.5674
21
-2.83853
0
LINE
8
BLACK
6
CONTINUOUS
10
-52.2614
20
-17.9585
11
-52.2614
21
-3.33853
0
ARC
8
BLACK
10
-51.7614
20
-3.33853
40
0.5
50
90
51
180
0
ARC
8
BLACK
10
-47.5674
20
-2.33853
40
0.5
50
-90
51
-30
0
ARC
8
BLACK
10
-37.1414
20
-17.9585
40
0.5
50
-90
51
-0
0
ARC
8
BLACK
10
-37.1414
20
-3.33853
40
0.5
50
-0
51
90
0
ARC
8
BLACK
10
-46.7014
20
-2.83853
40
0.5
50
90
51
150
0
ARC
8
BLACK
10
-51.7614
20
-17.9585
40
0.5
50
180
51
270
0
ARC
8
BLACK
10
-42.2014
20
-2.83853
40
0.5
50
30
51
90
0
ARC
8
BLACK
10
-41.3354
20
-2.33853
40
0.499999
50
-150
51
-90
0
LINE
8
BLACK
6
CONTINUOUS
10
-60.3354
20
-24.2135
11
-56.1414
21
-24.2135
0
LINE
8
BLACK
6
CONTINUOUS
10
-65.7014
20
-23.7135
11
-61.2014
21
-23.7135
0
LINE
8
BLACK
6
CONTINUOUS
10
-56.1414
20
-39.8335
11
-70.7614
21
-39.8335
0
LINE
8
BLACK
6
CONTINUOUS
10
-55.6414
20
-24.7135
11
-55.6414
21
-39.3335
0
LINE
8
BLACK
6
CONTINUOUS
10
-70.7614
20
-24.2135
11
-66.5674
21
-24.2135
0
LINE
8
BLACK
6
CONTINUOUS
10
-71.2614
20
-39.3335
11
-71.2614
21
-24.7135
0
ARC
8
BLACK
10
-70.7614
20
-24.7135
40
0.5
50
90
51
180
0
ARC
8
BLACK
10
-66.5674
20
-23.7135
40
0.5
50
-90
51
-30
0
ARC
8
BLACK
10
-56.1414
20
-39.3335
40
0.5
50
-90
51
-0
0
ARC
8
BLACK
10
-56.1414
20
-24.7135
40
0.5
50
-0
51
90
0
ARC
8
BLACK
10
-65.7014
20
-24.2135
40
0.5
50
90
51
150
0
ARC
8
BLACK
10
-70.7614
20
-39.3335
40
0.5
50
180
51
270
0
ARC
8
BLACK
10
-61.2014
20
-24.2135
40
0.5
50
30
51
90
0
ARC
8
BLACK
10
-60.3354
20
-23.7135
40
0.499999
50
-150
51
-90
0
LINE
8
BLACK
6
CONTINUOUS
10
-60.3354
20
-43.2135
11
-56.1414
21
-43.2135
0
LINE
8
BLACK
6
CONTINUOUS
10
-65.7014
20
-42.7135
11
-61.2014
21
-42.7135
0
LINE
8
BLACK
6
CONTINUOUS
10
-56.1414
20
-58.8335
11
-70.7614
21
-58.8335
0
LINE
8
BLACK
6
CONTINUOUS
10
-55.6414
20
-43.7135
11
-55.6414
21
-58.3335
0
LINE
8
BLACK
6
CONTINUOUS
10
-70.7614
20
-43.2135
11
-66.5674
21
-43.2135
0
LINE
8
BLACK
6
CONTINUOUS
10
-71.2614
20
-58.3335
11
-71.2614
21
-43.7135
0
ARC
8
BLACK
10
-70.7614
20
-43.7135
40
0.5
50
90
51
180
0
ARC
8
BLACK
10
-66.5674
20
-42.7135
40
0.5
50
-90
51
-30
0
ARC
8
BLACK
10
-56.1414
20
-58.3335
40
0.5
50
-90
51
-0
0
ARC
8
BLACK
10
-56.1414
20
-43.7135
40
0.5
50
-0
51
90
0
ARC
8
BLACK
10
-65.7014
20
-43.2135
40
0.5
50
90
51
150
0
ARC
8
BLACK
10
-70.7614
20
-58.3335
40
0.5
50
180
51
270
0
ARC
8
BLACK
10
-61.2014
20
-43.2135
40
0.5
50
30
51
90
0
ARC
8
BLACK
10
-60.3354
20
-42.7135
40
0.499999
50
-150
51
-90
0
LINE
8
BLACK
6
CONTINUOUS
10
-60.3354
20
-5.21353
11
-56.1414
21
-5.21353
0
LINE
8
BLACK
6
CONTINUOUS
10
-65.7014
20
-4.71353
11
-61.2014
21
-4.71353
0
LINE
8
BLACK
6
CONTINUOUS
10
-56.1414
20
-20.8335
11
-70.7614
21
-20.8335
0
LINE
8
BLACK
6
CONTINUOUS
10
-55.6414
20
-5.71353
11
-55.6414
21
-20.3335
0
LINE
8
BLACK
6
CONTINUOUS
10
-70.7614
20
-5.21353
11
-66.5674
21
-5.21353
0
LINE
8
BLACK
6
CONTINUOUS
10
-71.2614
20
-20.3335
11
-71.2614
21
-5.71353
0
ARC
8
BLACK
10
-70.7614
20
-5.71353
40
0.5
50
90
51
180
0
ARC
8
BLACK
10
-66.5674
20
-4.71353
40
0.5
50
-90
51
-30
0
ARC
8
BLACK
10
-56.1414
20
-20.3335
40
0.5
50
-90
51
-0
0
ARC
8
BLACK
10
-56.1414
20
-5.71353
40
0.5
50
-0
51
90
0
ARC
8
BLACK
10
-65.7014
20
-5.21353
40
0.5
50
90
51
150
0
ARC
8
BLACK
10
-70.7614
20
-20.3335
40
0.5
50
180
51
270
0
ARC
8
BLACK
10
-61.2014
20
-5.21353
40
0.5
50
30
51
90
0
ARC
8
BLACK
10
-60.3354
20
-4.71353
40
0.499999
50
-150
51
-90
0
LINE
8
BLACK
6
CONTINUOUS
10
-79.3354
20
-28.9635
11
-75.1414
21
-28.9635
0
LINE
8
BLACK
6
CONTINUOUS
10
-84.7014
20
-28.4635
11
-80.2014
21
-28.4635
0
LINE
8
BLACK
6
CONTINUOUS
10
-75.1414
20
-44.5835
11
-89.7614
21
-44.5835
0
LINE
8
BLACK
6
CONTINUOUS
10
-74.6414
20
-29.4635
11
-74.6414
21
-44.0835
0
LINE
8
BLACK
6
CONTINUOUS
10
-89.7614
20
-28.9635
11
-85.5674
21
-28.9635
0
LINE
8
BLACK
6
CONTINUOUS
10
-90.2614
20
-44.0835
11
-90.2614
21
-29.4635
0
ARC
8
BLACK
10
-89.7614
20
-29.4635
40
0.5
50
90
51
180
0
ARC
8
BLACK
10
-85.5674
20
-28.4635
40
0.5
50
-90
51
-30
0
ARC
8
BLACK
10
-75.1414
20
-44.0835
40
0.5
50
-90
51
-0
0
ARC
8
BLACK
10
-75.1414
20
-29.4635
40
0.5
50
-0
51
90
0
ARC
8
BLACK
10
-84.7014
20
-28.9635
40
0.5
50
90
51
150
0
ARC
8
BLACK
10
-89.7614
20
-44.0835
40
0.5
50
180
51
270
0
ARC
8
BLACK
10
-80.2014
20
-28.9635
40
0.5
50
30
51
90
0
ARC
8
BLACK
10
-79.3354
20
-28.4635
40
0.499999
50
-150
51
-90
0
LINE
8
BLACK
6
CONTINUOUS
10
-79.3354
20
-47.9635
11
-75.1414
21
-47.9635
0
LINE
8
BLACK
6
CONTINUOUS
10
-84.7014
20
-47.4635
11
-80.2014
21
-47.4635
0
LINE
8
BLACK
6
CONTINUOUS
10
-75.1414
20
-63.5835
11
-89.7614
21
-63.5835
0
LINE
8
BLACK
6
CONTINUOUS
10
-74.6414
20
-48.4635
11
-74.6414
21
-63.0835
0
LINE
8
BLACK
6
CONTINUOUS
10
-89.7614
20
-47.9635
11
-85.5674
21
-47.9635
0
LINE
8
BLACK
6
CONTINUOUS
10
-90.2614
20
-63.0835
11
-90.2614
21
-48.4635
0
ARC
8
BLACK
10
-89.7614
20
-48.4635
40
0.5
50
90
51
180
0
ARC
8
BLACK
10
-85.5674
20
-47.4635
40
0.5
50
-90
51
-30
0
ARC
8
BLACK
10
-75.1414
20
-63.0835
40
0.5
50
-90
51
-0
0
ARC
8
BLACK
10
-75.1414
20
-48.4635
40
0.5
50
-0
51
90
0
ARC
8
BLACK
10
-84.7014
20
-47.9635
40
0.5
50
90
51
150
0
ARC
8
BLACK
10
-89.7614
20
-63.0835
40
0.5
50
180
51
270
0
ARC
8
BLACK
10
-80.2014
20
-47.9635
40
0.5
50
30
51
90
0
ARC
8
BLACK
10
-79.3354
20
-47.4635
40
0.499999
50
-150
51
-90
0
LINE
8
BLACK
6
CONTINUOUS
10
-98.3354
20
-47.9635
11
-94.1414
21
-47.9635
0
LINE
8
BLACK
6
CONTINUOUS
10
-103.701
20
-47.4635
11
-99.2014
21
-47.4635
0
LINE
8
BLACK
6
CONTINUOUS
10
-94.1414
20
-63.5835
11
-108.761
21
-63.5835
0
LINE
8
BLACK
6
CONTINUOUS
10
-93.6414
20
-48.4635
11
-93.6414
21
-63.0835
0
LINE
8
BLACK
6
CONTINUOUS
10
-108.761
20
-47.9635
11
-104.567
21
-47.9635
0
LINE
8
BLACK
6
CONTINUOUS
10
-109.261
20
-63.0835
11
-109.261
21
-48.4635
0
ARC
8
BLACK
10
-108.761
20
-48.4635
40
0.5
50
90
51
180
0
ARC
8
BLACK
10
-104.567
20
-47.4635
40
0.5
50
-90
51
-30
0
ARC
8
BLACK
10
-94.1414
20
-63.0835
40
0.5
50
-90
51
-0
0
ARC
8
BLACK
10
-94.1414
20
-48.4635
40
0.5
50
-0
51
90
0
ARC
8
BLACK
10
-103.701
20
-47.9635
40
0.5
50
90
51
150
0
ARC
8
BLACK
10
-108.761
20
-63.0835
40
0.5
50
180
51
270
0
ARC
8
BLACK
10
-99.2014
20
-47.9635
40
0.5
50
30
51
90
0
ARC
8
BLACK
10
-98.3354
20
-47.4635
40
0.499999
50
-150
51
-90
0
LINE
8
BLACK
6
CONTINUOUS
10
-98.3354
20
-28.9635
11
-94.1414
21
-28.9635
0
LINE
8
BLACK
6
CONTINUOUS
10
-103.701
20
-28.4635
11
-99.2014
21
-28.4635
0
LINE
8
BLACK
6
CONTINUOUS
10
-94.1414
20
-44.5835
11
-108.761
21
-44.5835
0
LINE
8
BLACK
6
CONTINUOUS
10
-93.6414
20
-29.4635
11
-93.6414
21
-44.0835
0
LINE
8
BLACK
6
CONTINUOUS
10
-108.761
20
-28.9635
11
-104.567
21
-28.9635
0
LINE
8
BLACK
6
CONTINUOUS
10
-109.261
20
-44.0835
11
-109.261
21
-29.4635
0
ARC
8
BLACK
10
-108.761
20
-29.4635
40
0.5
50
90
51
180
0
ARC
8
BLACK
10
-104.567
20
-28.4635
40
0.5
50
-90
51
-30
0
ARC
8
BLACK
10
-94.1414
20
-44.0835
40
0.5
50
-90
51
-0
0
ARC
8
BLACK
10
-94.1414
20
-29.4635
40
0.5
50
-0
51
90
0
ARC
8
BLACK
10
-103.701
20
-28.9635
40
0.5
50
90
51
150
0
ARC
8
BLACK
10
-108.761
20
-44.0835
40
0.5
50
180
51
270
0
ARC
8
BLACK
10
-99.2014
20
-28.9635
40
0.5
50
30
51
90
0
ARC
8
BLACK
10
-98.3354
20
-28.4635
40
0.499999
50
-150
51
-90
0
LINE
8
BLACK
6
CONTINUOUS
10
-98.3354
20
-9.96353
11
-94.1414
21
-9.96353
0
LINE
8
BLACK
6
CONTINUOUS
10
-103.701
20
-9.46353
11
-99.2014
21
-9.46353
0
LINE
8
BLACK
6
CONTINUOUS
10
-94.1414
20
-25.5835
11
-108.761
21
-25.5835
0
LINE
8
BLACK
6
CONTINUOUS
10
-93.6414
20
-10.4635
11
-93.6414
21
-25.0835
0
LINE
8
BLACK
6
CONTINUOUS
10
-108.761
20
-9.96353
11
-104.567
21
-9.96353
0
LINE
8
BLACK
6
CONTINUOUS
10
-109.261
20
-25.0835
11
-109.261
21
-10.4635
0
ARC
8
BLACK
10
-108.761
20
-10.4635
40
0.5
50
90
51
180
0
ARC
8
BLACK
10
-104.567
20
-9.46353
40
0.5
50
-90
51
-30
0
ARC
8
BLACK
10
-94.1414
20
-25.0835
40
0.5
50
-90
51
-0
0
ARC
8
BLACK
10
-94.1414
20
-10.4635
40
0.5
50
-0
51
90
0
ARC
8
BLACK
10
-103.701
20
-9.96353
40
0.5
50
90
51
150
0
ARC
8
BLACK
10
-108.761
20
-25.0835
40
0.5
50
180
51
270
0
ARC
8
BLACK
10
-99.2014
20
-9.96353
40
0.5
50
30
51
90
0
ARC
8
BLACK
10
-98.3354
20
-9.46353
40
0.499999
50
-150
51
-90
0
LINE
8
BLACK
6
CONTINUOUS
10
-79.3354
20
-9.96353
11
-75.1414
21
-9.96353
0
LINE
8
BLACK
6
CONTINUOUS
10
-84.7014
20
-9.46353
11
-80.2014
21
-9.46353
0
LINE
8
BLACK
6
CONTINUOUS
10
-75.1414
20
-25.5835
11
-89.7614
21
-25.5835
0
LINE
8
BLACK
6
CONTINUOUS
10
-74.6414
20
-10.4635
11
-74.6414
21
-25.0835
0
LINE
8
BLACK
6
CONTINUOUS
10
-89.7614
20
-9.96353
11
-85.5674
21
-9.96353
0
LINE
8
BLACK
6
CONTINUOUS
10
-90.2614
20
-25.0835
11
-90.2614
21
-10.4635
0
ARC
8
BLACK
10
-89.7614
20
-10.4635
40
0.5
50
90
51
180
0
ARC
8
BLACK
10
-85.5674
20
-9.46353
40
0.5
50
-90
51
-30
0
ARC
8
BLACK
10
-75.1414
20
-25.0835
40
0.5
50
-90
51
-0
0
ARC
8
BLACK
10
-75.1414
20
-10.4635
40
0.5
50
-0
51
90
0
ARC
8
BLACK
10
-84.7014
20
-9.96353
40
0.5
50
90
51
150
0
ARC
8
BLACK
10
-89.7614
20
-25.0835
40
0.5
50
180
51
270
0
ARC
8
BLACK
10
-80.2014
20
-9.96353
40
0.5
50
30
51
90
0
ARC
8
BLACK
10
-79.3354
20
-9.46353
40
0.499999
50
-150
51
-90
0
CIRCLE
8
BLACK
10
-15.96
20
-23.65
40
1.15
0
CIRCLE
8
BLACK
10
-48.71
20
-63.4
40
1.15
0
CIRCLE
8
BLACK
10
-91.96
20
-27.4
40
1.15
0
CIRCLE
8
BLACK
10
-91.96
20
-46.15
40
1.15
0
CIRCLE
8
BLACK
10
-2.21
20
-71.15
40
1.15
  0
ENDSEC
  0
EOF
