  0
SECTION
  2
HEADER
  9
$ANGBASE
  50
0.0
  9
$ANGDIR
  70
1
  9
$MEASUREMENT
  70
1
  0
ENDSEC
  0
SECTION
  2
TABLES
  0
TABLE
  2
LTYPE
  70
4
  0
LTYPE
  5
40F
  2
CONTINUOUS
  70
0
  3
Solid line
  72
65
  73
0
  40
0.0
  0
LTYPE
  5
410
  2
DASHDOT
 70
0
  3
Dash Dot ____ _ ____ _
 72
65
 73
4
 40
2.0
 49
1.25
 49
-0.25
 49
0.25
 49
-0.25
  0
LTYPE
  5
411
  2
DASHED
 70
0
  3
Dashed __ __ __ __ __
 72
65
 73
2
 40
0.75
 49
0.5
 49
-0.25
  0
LTYPE
  5
43B
  2
DOTTED
 70
0
  3
Dotted .  .  .  .
 72
65
 73
2
 40
0.2
 49
0.0
 49
-0.2
  0
ENDTAB
  0
TABLE
  2
STYLE
  70
4
  0
STYLE
  2
KICAD
  70
0
  40
0
  41
1
  42
1
  50
0
  71
0
  3
isocp.shx
  0
STYLE
  2
KICADB
  70
0
  40
0
  41
1
  42
1
  50
0
  71
0
  3
isocp.shx
  0
STYLE
  2
KICADI
  70
0
  40
0
  41
1
  42
1
  50
15
  71
0
  3
isocp.shx
  0
STYLE
  2
KICADBI
  70
0
  40
0
  41
1
  42
1
  50
15
  71
0
  3
isocp.shx
  0
ENDTAB
  0
TABLE
  2
LAYER
  70
1
  0
LAYER
  2
BLACK
  70
0
  62
7
  6
CONTINUOUS
  0
ENDTAB
  0
ENDSEC
  0
SECTION
  2
ENTITIES
0
LINE
8
BLACK
6
CONTINUOUS
10
-128.945
20
-41.2042
11
-110.89
21
-41.2042
0
LINE
8
BLACK
6
CONTINUOUS
10
-110.394
20
-9.24312
11
-110.394
21
-22.2
0
ARC
8
BLACK
10
-110.89
20
-41.7042
40
0.5
50
-0
51
90
0
LINE
8
BLACK
6
CONTINUOUS
10
-110.894
20
-22.7
11
-128.94
21
-22.7042
0
LINE
8
BLACK
6
CONTINUOUS
10
-129.44
20
-23.2042
11
-129.445
21
-40.7042
0
ARC
8
BLACK
10
-128.945
20
-40.7042
40
0.5
50
-180
51
-90
0
ARC
8
BLACK
10
-128.94
20
-23.2042
40
0.5
50
90
51
180
0
LINE
8
BLACK
6
CONTINUOUS
10
-110.391
20
-64.4
11
-110.39
21
-41.7042
0
ARC
8
BLACK
10
-110.894
20
-22.2
40
0.5
50
-90
51
-0
0
ARC
8
BLACK
10
3.38728
20
-57.4352
40
0.850368
50
-178.315
51
-125.788
0
ARC
8
BLACK
10
21.04
20
-70.2
40
1.38677
50
-33.9765
51
56.2469
0
LINE
8
BLACK
6
CONTINUOUS
10
21.8105
20
-69.047
11
2.89
21
-58.125
0
ARC
8
BLACK
10
8.68425
20
-91.661
40
1.38677
50
-123.977
51
-33.7531
0
ARC
8
BLACK
10
-7.3726
20
-87.8184
40
3.41439
50
73.1872
51
84.4006
0
LINE
8
BLACK
6
CONTINUOUS
10
9.83726
20
-92.4315
11
22.19
21
-70.975
0
LINE
8
BLACK
6
CONTINUOUS
10
-6.385
20
-84.55
11
7.90925
21
-92.811
0
LINE
8
BLACK
6
CONTINUOUS
10
-43.71
20
-79.65
11
-7.03944
21
-84.4203
0
ARC
8
BLACK
10
-43.71
20
-79.15
40
0.5
50
-135
51
-90
0
LINE
8
BLACK
6
CONTINUOUS
10
-54.6064
20
-65.0464
11
-44.0636
21
-79.5036
0
LINE
8
BLACK
6
CONTINUOUS
10
2.54
20
-6.9
11
2.53728
21
-57.4602
0
ARC
8
BLACK
10
2.04
20
-6.9
40
0.5
50
-0
51
90
0
ARC
8
BLACK
10
-54.96
20
-65.4
40
0.5
50
45
51
90
0
ARC
8
BLACK
10
-109.891
20
-64.4
40
0.5
50
-180
51
-90
0
ARC
8
BLACK
10
-109.96
20
-9.10514
40
0.455139
50
-270
51
-162.352
0
ARC
8
BLACK
10
-72.96
20
-8.15
40
0.5
50
-90
51
-0
0
ARC
8
BLACK
10
-71.96
20
-4.4
40
0.5
50
90
51
180
0
ARC
8
BLACK
10
-53.96
20
-3.4
40
0.5
50
-90
51
-0
0
ARC
8
BLACK
10
-52.96
20
-2.15
40
0.5
50
90
51
180
0
ARC
8
BLACK
10
-35.96
20
-2.15
40
0.5
50
-0
51
90
0
ARC
8
BLACK
10
-34.96
20
-3.4
40
0.5
50
-180
51
-90
0
ARC
8
BLACK
10
-16.96
20
-4.4
40
0.5
50
-0
51
90
0
ARC
8
BLACK
10
-15.96
20
-5.9
40
0.5
50
-180
51
-90
0
LINE
8
BLACK
6
CONTINUOUS
10
-54.96
20
-64.9
11
-109.891
21
-64.9
0
LINE
8
BLACK
6
CONTINUOUS
10
-72.96
20
-8.65
11
-109.96
21
-8.65
0
LINE
8
BLACK
6
CONTINUOUS
10
-72.46
20
-4.4
11
-72.46
21
-8.15
0
LINE
8
BLACK
6
CONTINUOUS
10
-53.96
20
-3.9
11
-71.96
21
-3.9
0
LINE
8
BLACK
6
CONTINUOUS
10
-53.46
20
-2.15
11
-53.46
21
-3.4
0
LINE
8
BLACK
6
CONTINUOUS
10
-35.96
20
-1.65
11
-52.96
21
-1.65
0
LINE
8
BLACK
6
CONTINUOUS
10
-35.46
20
-3.4
11
-35.46
21
-2.15
0
LINE
8
BLACK
6
CONTINUOUS
10
-16.96
20
-3.9
11
-34.96
21
-3.9
0
LINE
8
BLACK
6
CONTINUOUS
10
-16.46
20
-5.9
11
-16.46
21
-4.4
0
LINE
8
BLACK
6
CONTINUOUS
10
2.04
20
-6.4
11
-15.96
21
-6.4
0
CIRCLE
8
BLACK
10
-15.96
20
-23.65
40
1.15
0
CIRCLE
8
BLACK
10
-48.71
20
-63.4
40
1.15
0
CIRCLE
8
BLACK
10
-91.96
20
-27.4
40
1.15
0
CIRCLE
8
BLACK
10
-91.96
20
-46.15
40
1.15
0
CIRCLE
8
BLACK
10
-2.21
20
-71.15
40
1.15
0
LINE
8
BLACK
6
CONTINUOUS
10
-128.194
20
-25.433
11
-128.194
21
-38.233
0
LINE
8
BLACK
6
CONTINUOUS
10
-128.194
20
-38.233
11
-112.694
21
-38.233
0
LINE
8
BLACK
6
CONTINUOUS
10
-112.694
20
-38.233
11
-112.694
21
-25.433
0
LINE
8
BLACK
6
CONTINUOUS
10
-112.694
20
-25.433
11
-128.194
21
-25.433
0
LINE
8
BLACK
6
CONTINUOUS
10
-1.12756
20
-80.6467
11
9.95756
21
-87.0467
0
LINE
8
BLACK
6
CONTINUOUS
10
9.95756
20
-87.0467
11
17.7076
21
-73.6233
0
LINE
8
BLACK
6
CONTINUOUS
10
17.7076
20
-73.6233
11
6.62244
21
-67.2233
0
LINE
8
BLACK
6
CONTINUOUS
10
6.62244
20
-67.2233
11
-1.12756
21
-80.6467
0
LINE
8
BLACK
6
CONTINUOUS
10
-19.7975
20
-65.2062
11
-23.1104
21
-77.5701
0
LINE
8
BLACK
6
CONTINUOUS
10
-23.1104
20
-77.5701
11
-8.13852
21
-81.5818
0
LINE
8
BLACK
6
CONTINUOUS
10
-8.13852
20
-81.5818
11
-4.82563
21
-69.2179
0
LINE
8
BLACK
6
CONTINUOUS
10
-4.82563
20
-69.2179
11
-19.7975
21
-65.2062
0
LINE
8
BLACK
6
CONTINUOUS
10
-42.68
20
-64.285
11
-42.68
21
-77.085
0
LINE
8
BLACK
6
CONTINUOUS
10
-42.68
20
-77.085
11
-27.18
21
-77.085
0
LINE
8
BLACK
6
CONTINUOUS
10
-27.18
20
-77.085
11
-27.18
21
-64.285
0
LINE
8
BLACK
6
CONTINUOUS
10
-27.18
20
-64.285
11
-42.68
21
-64.285
0
LINE
8
BLACK
6
CONTINUOUS
10
-14.2
20
-47
11
-14.2
21
-59.8
0
LINE
8
BLACK
6
CONTINUOUS
10
-14.2
20
-59.8
11
1.3
21
-59.8
0
LINE
8
BLACK
6
CONTINUOUS
10
1.3
20
-59.8
11
1.3
21
-47
0
LINE
8
BLACK
6
CONTINUOUS
10
1.3
20
-47
11
-14.2
21
-47
0
LINE
8
BLACK
6
CONTINUOUS
10
-14.2
20
-9
11
-14.2
21
-21.8
0
LINE
8
BLACK
6
CONTINUOUS
10
-14.2
20
-21.8
11
1.3
21
-21.8
0
LINE
8
BLACK
6
CONTINUOUS
10
1.3
20
-21.8
11
1.3
21
-9
0
LINE
8
BLACK
6
CONTINUOUS
10
1.3
20
-9
11
-14.2
21
-9
0
LINE
8
BLACK
6
CONTINUOUS
10
-14.2
20
-28
11
-14.2
21
-40.8
0
LINE
8
BLACK
6
CONTINUOUS
10
-14.2
20
-40.8
11
1.3
21
-40.8
0
LINE
8
BLACK
6
CONTINUOUS
10
1.3
20
-40.8
11
1.3
21
-28
0
LINE
8
BLACK
6
CONTINUOUS
10
1.3
20
-28
11
-14.2
21
-28
0
LINE
8
BLACK
6
CONTINUOUS
10
-33.2
20
-25.625
11
-33.2
21
-38.425
0
LINE
8
BLACK
6
CONTINUOUS
10
-33.2
20
-38.425
11
-17.7
21
-38.425
0
LINE
8
BLACK
6
CONTINUOUS
10
-17.7
20
-38.425
11
-17.7
21
-25.625
0
LINE
8
BLACK
6
CONTINUOUS
10
-17.7
20
-25.625
11
-33.2
21
-25.625
0
LINE
8
BLACK
6
CONTINUOUS
10
-33.2
20
-6.625
11
-33.2
21
-19.425
0
LINE
8
BLACK
6
CONTINUOUS
10
-33.2
20
-19.425
11
-17.7
21
-19.425
0
LINE
8
BLACK
6
CONTINUOUS
10
-17.7
20
-19.425
11
-17.7
21
-6.625
0
LINE
8
BLACK
6
CONTINUOUS
10
-17.7
20
-6.625
11
-33.2
21
-6.625
0
LINE
8
BLACK
6
CONTINUOUS
10
-33.2
20
-44.625
11
-33.2
21
-57.425
0
LINE
8
BLACK
6
CONTINUOUS
10
-33.2
20
-57.425
11
-17.7
21
-57.425
0
LINE
8
BLACK
6
CONTINUOUS
10
-17.7
20
-57.425
11
-17.7
21
-44.625
0
LINE
8
BLACK
6
CONTINUOUS
10
-17.7
20
-44.625
11
-33.2
21
-44.625
0
LINE
8
BLACK
6
CONTINUOUS
10
-52.2
20
-23.25
11
-52.2
21
-36.05
0
LINE
8
BLACK
6
CONTINUOUS
10
-52.2
20
-36.05
11
-36.7
21
-36.05
0
LINE
8
BLACK
6
CONTINUOUS
10
-36.7
20
-36.05
11
-36.7
21
-23.25
0
LINE
8
BLACK
6
CONTINUOUS
10
-36.7
20
-23.25
11
-52.2
21
-23.25
0
LINE
8
BLACK
6
CONTINUOUS
10
-52.2
20
-42.25
11
-52.2
21
-55.05
0
LINE
8
BLACK
6
CONTINUOUS
10
-52.2
20
-55.05
11
-36.7
21
-55.05
0
LINE
8
BLACK
6
CONTINUOUS
10
-36.7
20
-55.05
11
-36.7
21
-42.25
0
LINE
8
BLACK
6
CONTINUOUS
10
-36.7
20
-42.25
11
-52.2
21
-42.25
0
LINE
8
BLACK
6
CONTINUOUS
10
-52.2
20
-4.25
11
-52.2
21
-17.05
0
LINE
8
BLACK
6
CONTINUOUS
10
-52.2
20
-17.05
11
-36.7
21
-17.05
0
LINE
8
BLACK
6
CONTINUOUS
10
-36.7
20
-17.05
11
-36.7
21
-4.25
0
LINE
8
BLACK
6
CONTINUOUS
10
-36.7
20
-4.25
11
-52.2
21
-4.25
0
LINE
8
BLACK
6
CONTINUOUS
10
-71.2
20
-25.625
11
-71.2
21
-38.425
0
LINE
8
BLACK
6
CONTINUOUS
10
-71.2
20
-38.425
11
-55.7
21
-38.425
0
LINE
8
BLACK
6
CONTINUOUS
10
-55.7
20
-38.425
11
-55.7
21
-25.625
0
LINE
8
BLACK
6
CONTINUOUS
10
-55.7
20
-25.625
11
-71.2
21
-25.625
0
LINE
8
BLACK
6
CONTINUOUS
10
-71.2
20
-44.625
11
-71.2
21
-57.425
0
LINE
8
BLACK
6
CONTINUOUS
10
-71.2
20
-57.425
11
-55.7
21
-57.425
0
LINE
8
BLACK
6
CONTINUOUS
10
-55.7
20
-57.425
11
-55.7
21
-44.625
0
LINE
8
BLACK
6
CONTINUOUS
10
-55.7
20
-44.625
11
-71.2
21
-44.625
0
LINE
8
BLACK
6
CONTINUOUS
10
-71.2
20
-6.625
11
-71.2
21
-19.425
0
LINE
8
BLACK
6
CONTINUOUS
10
-71.2
20
-19.425
11
-55.7
21
-19.425
0
LINE
8
BLACK
6
CONTINUOUS
10
-55.7
20
-19.425
11
-55.7
21
-6.625
0
LINE
8
BLACK
6
CONTINUOUS
10
-55.7
20
-6.625
11
-71.2
21
-6.625
0
LINE
8
BLACK
6
CONTINUOUS
10
-90.2
20
-30.375
11
-90.2
21
-43.175
0
LINE
8
BLACK
6
CONTINUOUS
10
-90.2
20
-43.175
11
-74.7
21
-43.175
0
LINE
8
BLACK
6
CONTINUOUS
10
-74.7
20
-43.175
11
-74.7
21
-30.375
0
LINE
8
BLACK
6
CONTINUOUS
10
-74.7
20
-30.375
11
-90.2
21
-30.375
0
LINE
8
BLACK
6
CONTINUOUS
10
-90.2
20
-49.375
11
-90.2
21
-62.175
0
LINE
8
BLACK
6
CONTINUOUS
10
-90.2
20
-62.175
11
-74.7
21
-62.175
0
LINE
8
BLACK
6
CONTINUOUS
10
-74.7
20
-62.175
11
-74.7
21
-49.375
0
LINE
8
BLACK
6
CONTINUOUS
10
-74.7
20
-49.375
11
-90.2
21
-49.375
0
LINE
8
BLACK
6
CONTINUOUS
10
-109.2
20
-49.375
11
-109.2
21
-62.175
0
LINE
8
BLACK
6
CONTINUOUS
10
-109.2
20
-62.175
11
-93.7
21
-62.175
0
LINE
8
BLACK
6
CONTINUOUS
10
-93.7
20
-62.175
11
-93.7
21
-49.375
0
LINE
8
BLACK
6
CONTINUOUS
10
-93.7
20
-49.375
11
-109.2
21
-49.375
0
LINE
8
BLACK
6
CONTINUOUS
10
-109.2
20
-30.375
11
-109.2
21
-43.175
0
LINE
8
BLACK
6
CONTINUOUS
10
-109.2
20
-43.175
11
-93.7
21
-43.175
0
LINE
8
BLACK
6
CONTINUOUS
10
-93.7
20
-43.175
11
-93.7
21
-30.375
0
LINE
8
BLACK
6
CONTINUOUS
10
-93.7
20
-30.375
11
-109.2
21
-30.375
0
LINE
8
BLACK
6
CONTINUOUS
10
-109.2
20
-11.375
11
-109.2
21
-24.175
0
LINE
8
BLACK
6
CONTINUOUS
10
-109.2
20
-24.175
11
-93.7
21
-24.175
0
LINE
8
BLACK
6
CONTINUOUS
10
-93.7
20
-24.175
11
-93.7
21
-11.375
0
LINE
8
BLACK
6
CONTINUOUS
10
-93.7
20
-11.375
11
-109.2
21
-11.375
0
LINE
8
BLACK
6
CONTINUOUS
10
-90.2
20
-11.375
11
-90.2
21
-24.175
0
LINE
8
BLACK
6
CONTINUOUS
10
-90.2
20
-24.175
11
-74.7
21
-24.175
0
LINE
8
BLACK
6
CONTINUOUS
10
-74.7
20
-24.175
11
-74.7
21
-11.375
0
LINE
8
BLACK
6
CONTINUOUS
10
-74.7
20
-11.375
11
-90.2
21
-11.375
  0
ENDSEC
  0
EOF
